<svg class="main-svg" xmlns="http://www.w3.org/2000/svg" xmlns:xlink="http://www.w3.org/1999/xlink" width="700" height="500" style="" viewBox="0 0 700 500"><rect x="0" y="0" width="700" height="500" style="fill: rgb(255, 255, 255); fill-opacity: 1;"/><defs id="defs-9cd738"><g class="clips"><clipPath id="clip9cd738xyplot" class="plotclip"><rect width="540" height="360"/></clipPath><clipPath class="axesclip" id="clip9cd738x"><rect x="80" y="0" width="540" height="500"/></clipPath><clipPath class="axesclip" id="clip9cd738y"><rect x="0" y="60" width="700" height="360"/></clipPath><clipPath class="axesclip" id="clip9cd738xy"><rect x="80" y="60" width="540" height="360"/></clipPath></g><g class="gradients"/><g class="patterns"/></defs><g class="bglayer"><rect class="bg" x="80" y="60" width="540" height="360" style="fill: rgb(229, 236, 246); fill-opacity: 1; stroke-width: 0;"/></g><g class="layer-below"><g class="imagelayer"/><g class="shapelayer"/></g><g class="cartesianlayer"><g class="subplot xy"><g class="layer-subplot"><g class="shapelayer"/><g class="imagelayer"/></g><g class="minor-gridlayer"><g class="x"/><g class="y"/></g><g class="gridlayer"><g class="x"><path class="xgrid crisp" transform="translate(107.55,0)" d="M0,60v360" style="stroke: rgb(255, 255, 255); stroke-opacity: 1; stroke-width: 1px;"/><path class="xgrid crisp" transform="translate(213.15,0)" d="M0,60v360" style="stroke: rgb(255, 255, 255); stroke-opacity: 1; stroke-width: 1px;"/><path class="xgrid crisp" transform="translate(318.75,0)" d="M0,60v360" style="stroke: rgb(255, 255, 255); stroke-opacity: 1; stroke-width: 1px;"/><path class="xgrid crisp" transform="translate(424.35,0)" d="M0,60v360" style="stroke: rgb(255, 255, 255); stroke-opacity: 1; stroke-width: 1px;"/><path class="xgrid crisp" transform="translate(529.95,0)" d="M0,60v360" style="stroke: rgb(255, 255, 255); stroke-opacity: 1; stroke-width: 1px;"/></g><g class="y"><path class="ygrid crisp" transform="translate(0,331.1)" d="M80,0h540" style="stroke: rgb(255, 255, 255); stroke-opacity: 1; stroke-width: 1px;"/><path class="ygrid crisp" transform="translate(0,260.21000000000004)" d="M80,0h540" style="stroke: rgb(255, 255, 255); stroke-opacity: 1; stroke-width: 1px;"/><path class="ygrid crisp" transform="translate(0,189.31)" d="M80,0h540" style="stroke: rgb(255, 255, 255); stroke-opacity: 1; stroke-width: 1px;"/><path class="ygrid crisp" transform="translate(0,118.41)" d="M80,0h540" style="stroke: rgb(255, 255, 255); stroke-opacity: 1; stroke-width: 1px;"/></g></g><g class="zerolinelayer"><path class="yzl zl crisp" transform="translate(0,402)" d="M80,0h540" style="stroke: rgb(255, 255, 255); stroke-opacity: 1; stroke-width: 2px;"/></g><path class="xlines-below"/><path class="ylines-below"/><g class="overlines-below"/><g class="xaxislayer-below"/><g class="yaxislayer-below"/><g class="overaxes-below"/><g class="plot" transform="translate(80,60)" clip-path="url(#clip9cd738xyplot)"><g class="scatterlayer mlayer"><g class="trace scatter trace9973ca" style="stroke-miterlimit: 2; opacity: 1;"><g class="fills"/><g class="errorbars"/><g class="lines"><path class="js-line" d="M0,342L0.84,317.19L1.69,315.77L2.54,316.48L3.38,320.73L4.23,315.06L5.07,315.06L5.92,323.57L6.76,315.77L7.61,316.48L8.45,323.57L9.3,312.22L10.14,316.48L10.99,316.48L11.83,318.6L12.68,322.15L13.52,314.35L15.21,320.02L16.06,316.48L16.9,315.06L17.75,322.86L18.59,310.1L19.44,314.35L20.28,314.35L21.13,312.22L21.97,316.48L22.82,316.48L23.66,319.31L24.51,318.6L25.35,307.26L26.2,320.73L27.04,307.26L27.89,316.48L29.58,314.35L30.42,315.77L31.27,314.35L32.11,319.31L32.96,305.13L33.8,310.81L34.65,313.64L35.49,320.02L36.34,305.13L37.18,315.06L38.03,303.72L38.87,310.81L39.72,317.89L40.56,314.35L41.41,317.89L42.25,317.89L43.1,306.55L43.94,315.06L44.79,315.06L45.63,312.22L46.48,317.89L47.32,315.77L48.17,306.55L49.01,310.81L49.86,311.51L50.7,310.1L51.55,303.72L52.39,306.55L53.24,307.26L54.08,314.35L54.93,309.39L55.77,315.06L56.62,301.59L57.46,303.01L59.15,317.89L60,310.81L60.85,304.42L61.69,320.73L64.23,302.3L65.07,312.93L65.92,313.64L66.76,318.6L68.45,303.01L69.3,308.68L70.14,316.48L70.99,309.39L71.83,302.3L72.68,310.81L73.52,302.3L74.37,307.97L75.21,298.75L76.06,312.93L77.75,303.72L78.59,305.13L79.44,300.17L80.28,307.26L81.13,307.97L81.97,310.81L83.66,299.46L84.51,307.97L86.2,301.59L87.04,305.13L87.89,302.3L88.73,302.3L89.58,302.3L90.42,299.46L91.27,301.59L92.11,305.84L93.8,294.5L94.65,293.79L95.49,299.46L96.34,289.54L97.18,292.37L98.03,304.42L98.87,301.59L99.72,295.21L101.41,295.21L102.25,277.48L103.1,291.66L103.94,287.41L104.79,285.99L105.63,290.95L106.48,274.65L107.32,283.86L109.01,290.25L109.86,288.12L110.7,277.48L111.55,278.19L112.39,268.98L113.24,281.03L114.93,267.56L115.77,264.01L116.62,266.85L117.46,276.07L118.31,264.72L119.15,267.56L120,261.89L120.84,244.87L121.69,265.43L122.54,260.47L123.38,261.89L124.23,254.8L125.07,255.51L125.92,260.47L126.76,250.54L127.61,254.8L128.45,259.76L129.3,246.29L130.14,239.91L130.99,253.38L131.83,247L132.68,232.11L134.37,256.92L135.21,239.2L136.06,242.04L136.9,247.71L137.75,227.86L138.59,234.95L139.44,229.27L140.28,232.11L141.13,240.62L141.97,225.73L142.82,227.15L143.66,221.47L144.51,227.86L145.35,221.47L146.2,220.77L147.04,225.02L147.89,225.73L148.73,205.17L149.58,198.08L150.42,229.27L151.27,221.47L152.11,200.21L152.96,188.86L153.8,212.26L154.65,194.53L155.49,193.12L156.34,194.53L157.18,188.86L159.72,174.68L160.56,169.72L161.41,190.28L162.25,159.79L163.1,185.32L163.94,185.32L164.79,135.69L165.63,170.43L166.48,188.15L167.32,187.44L169.01,155.54L169.86,164.76L170.7,184.61L171.55,173.26L173.24,137.11L174.08,177.52L174.93,150.58L175.77,166.18L176.62,147.74L177.46,164.76L178.31,123.64L179.15,142.78L180,161.21L180.85,152L181.69,147.03L182.54,127.89L184.23,119.38L185.07,139.94L185.92,121.51L186.76,120.8L188.45,107.33L189.3,131.44L190.14,104.49L190.99,107.33L192.68,94.57L193.52,76.84L194.37,101.66L195.21,92.44L196.06,95.28L196.9,81.1L197.75,78.97L198.59,72.59L199.44,87.48L200.28,88.19L201.13,109.46L201.97,71.88L202.82,81.81L203.66,74.01L204.51,81.1L205.35,68.34L207.04,57.7L207.89,77.55L208.73,71.88L209.58,83.93L210.42,66.21L211.27,66.92L212.11,72.59L212.96,83.93L213.8,97.4L214.65,39.98L215.49,95.99L216.34,69.75L218.03,91.02L218.87,90.32L219.72,82.52L220.56,93.86L223.1,75.43L223.94,58.41L225.63,110.88L226.48,66.21L227.32,79.68L228.17,75.43L229.01,34.31L229.86,48.49L230.7,74.72L231.55,47.07L232.39,61.96L233.24,30.76L234.08,44.23L234.93,41.4L235.77,70.46L236.62,26.51L237.46,43.52L238.31,36.43L239.15,42.11L240,78.97L241.69,30.76L242.54,54.87L243.38,26.51L244.23,48.49L245.07,39.27L245.92,38.56L246.76,81.81L247.61,29.34L248.45,62.67L249.3,63.37L250.14,58.41L250.99,33.6L251.83,53.45L252.68,39.98L253.52,59.83L254.37,59.83L255.21,32.18L256.06,53.45L256.9,54.87L257.75,66.21L258.59,44.94L259.44,78.26L260.28,71.88L261.13,54.87L261.97,87.48L262.82,43.52L264.51,64.08L265.35,66.92L266.2,74.01L267.04,69.05L267.89,73.3L268.73,59.12L269.58,40.69L270.42,54.87L272.11,85.35L272.96,54.87L273.8,42.11L274.65,52.74L275.49,29.34L276.34,32.18L277.18,63.37L278.03,52.74L278.87,18L279.72,29.34L280.56,30.05L281.41,64.79L283.1,24.38L283.94,77.55L285.63,30.05L286.48,49.9L287.32,78.26L288.17,40.69L289.01,37.85L289.86,68.34L290.7,70.46L291.55,81.1L293.24,56.28L294.08,60.54L294.93,54.87L295.77,42.11L298.31,72.59L299.15,69.75L300,72.59L300.84,37.85L302.54,88.9L303.38,66.21L304.23,88.19L305.07,63.37L306.76,78.97L307.61,50.61L308.45,52.74L309.3,93.86L310.99,61.96L311.83,105.2L313.52,71.17L314.37,83.23L315.21,65.5L316.06,87.48L316.9,59.83L317.75,101.66L318.59,93.15L319.44,73.3L320.28,64.08L321.13,69.75L321.97,88.9L322.82,83.93L324.51,56.28L325.35,74.72L327.04,54.16L327.89,88.9L328.73,86.06L329.58,73.3L330.42,71.17L331.27,61.25L332.11,69.75L332.96,63.37L333.8,103.08L334.65,62.67L335.49,67.63L336.34,78.26L337.18,74.01L338.03,80.39L338.87,66.92L339.72,89.61L340.56,74.72L341.41,98.11L342.25,88.19L343.1,130.02L343.94,98.11L344.79,128.6L347.32,91.73L348.17,111.58L349.01,111.58L349.86,133.56L350.7,114.42L351.55,113.71L352.39,93.86L353.24,130.73L355.77,87.48L356.62,116.55L357.46,122.22L358.31,103.79L359.15,117.96L360,93.86L361.69,141.36L362.54,124.35L363.38,110.17L364.23,134.98L365.07,112.29L365.92,119.38L366.76,104.49L367.61,134.98L368.45,104.49L369.3,121.51L370.14,125.05L370.99,134.27L371.83,115.84L372.68,129.31L373.52,122.93L374.37,135.69L375.21,105.91L376.06,139.94L376.9,106.62L377.75,113.71L378.59,130.02L379.44,122.93L380.28,125.76L381.13,115.84L381.97,120.09L382.82,151.29L384.51,119.38L385.35,149.16L386.2,153.41L387.04,130.02L387.89,138.53L388.73,156.96L389.58,137.11L390.42,139.23L391.27,122.93L392.11,172.56L393.8,140.65L394.65,152.7L395.49,175.39L396.34,159.79L397.18,161.21L398.03,174.68L398.87,148.45L399.72,156.96L400.56,176.81L401.41,167.59L402.25,153.41L403.1,164.05L404.79,145.61L405.63,168.3L406.48,195.24L407.32,190.28L408.17,159.09L409.01,163.34L409.86,164.76L410.7,175.39L411.55,183.9L412.39,167.59L413.24,160.5L414.08,179.65L414.93,156.96L415.77,164.05L417.46,156.96L418.31,180.35L419.15,150.58L420,149.16L421.69,172.56L422.54,166.18L423.38,152.7L424.23,171.14L425.07,166.88L425.92,178.94L426.76,194.53L427.61,168.3L428.45,156.25L429.3,182.48L430.14,161.92L430.99,171.85L431.83,187.44L432.68,178.23L434.37,169.72L435.21,187.44L436.9,186.03L437.75,186.74L439.44,215.8L440.28,200.91L441.13,188.86L441.97,206.59L443.66,201.62L444.51,209.42L445.35,196.66L446.2,210.84L447.04,220.77L447.89,209.42L448.73,210.13L449.58,230.69L450.42,201.62L451.27,198.79L452.96,227.86L453.8,206.59L454.65,221.47L455.49,220.77L456.34,216.51L457.18,217.93L458.03,219.35L458.87,210.84L460.56,226.44L461.41,220.06L462.25,227.15L463.1,218.64L463.94,216.51L464.79,217.22L465.63,230.69L466.48,229.98L467.32,221.47L468.17,231.4L469.01,215.8L469.86,225.73L472.39,201.62L473.24,225.02L474.08,225.73L474.93,212.97L476.62,226.44L477.46,233.53L478.31,226.44L479.15,205.88L480.84,229.27L481.69,222.89L483.38,230.69L484.23,227.15L485.92,237.07L486.76,226.44L487.61,250.54L488.45,242.74L489.3,251.96L490.14,234.24L490.99,234.24L491.83,235.65L492.68,244.16L493.52,236.36L494.37,237.78L495.21,233.53L496.06,235.65L496.9,242.74L498.59,237.78L499.44,249.83L500.28,259.05L501.13,234.95L502.82,242.74L503.66,252.67L504.51,251.96L505.35,239.91L507.89,251.96L508.73,251.25L509.58,245.58L510.42,258.34L511.27,256.92L512.11,259.76L513.8,260.47L514.65,252.67L515.49,253.38L516.34,228.56L518.03,252.67L518.87,254.8L519.72,259.05L520.56,248.42L522.25,261.18L523.1,240.62L524.79,259.05L525.63,257.63L526.48,257.63L527.32,261.18L528.17,267.56L529.01,251.96L529.86,256.21L530.7,254.09L531.55,261.89L532.39,250.54L534.08,272.52L534.93,264.01L535.77,263.3L536.62,268.27L539.16,256.92L540,342" style="vector-effect: none; fill: none; stroke: rgb(99, 110, 250); stroke-opacity: 1; stroke-width: 2px; opacity: 1;"/></g><g class="points"/><g class="text"/></g></g></g><g class="overplot"/><path class="xlines-above crisp" d="M0,0" style="fill: none;"/><path class="ylines-above crisp" d="M0,0" style="fill: none;"/><g class="overlines-above"/><g class="xaxislayer-above"><g class="xtick"><text text-anchor="middle" x="0" y="433" transform="translate(107.55,0)" style="font-family: 'Open Sans', verdana, arial, sans-serif; font-size: 12px; fill: rgb(42, 63, 95); fill-opacity: 1; white-space: pre; opacity: 1;">440</text></g><g class="xtick"><text text-anchor="middle" x="0" y="433" style="font-family: 'Open Sans', verdana, arial, sans-serif; font-size: 12px; fill: rgb(42, 63, 95); fill-opacity: 1; white-space: pre; opacity: 1;" transform="translate(213.15,0)">460</text></g><g class="xtick"><text text-anchor="middle" x="0" y="433" style="font-family: 'Open Sans', verdana, arial, sans-serif; font-size: 12px; fill: rgb(42, 63, 95); fill-opacity: 1; white-space: pre; opacity: 1;" transform="translate(318.75,0)">480</text></g><g class="xtick"><text text-anchor="middle" x="0" y="433" style="font-family: 'Open Sans', verdana, arial, sans-serif; font-size: 12px; fill: rgb(42, 63, 95); fill-opacity: 1; white-space: pre; opacity: 1;" transform="translate(424.35,0)">500</text></g><g class="xtick"><text text-anchor="middle" x="0" y="433" style="font-family: 'Open Sans', verdana, arial, sans-serif; font-size: 12px; fill: rgb(42, 63, 95); fill-opacity: 1; white-space: pre; opacity: 1;" transform="translate(529.95,0)">520</text></g></g><g class="yaxislayer-above"><g class="ytick"><text text-anchor="end" x="79" y="4.199999999999999" transform="translate(0,402)" style="font-family: 'Open Sans', verdana, arial, sans-serif; font-size: 12px; fill: rgb(42, 63, 95); fill-opacity: 1; white-space: pre; opacity: 1;">0</text></g><g class="ytick"><text text-anchor="end" x="79" y="4.199999999999999" style="font-family: 'Open Sans', verdana, arial, sans-serif; font-size: 12px; fill: rgb(42, 63, 95); fill-opacity: 1; white-space: pre; opacity: 1;" transform="translate(0,331.1)">100</text></g><g class="ytick"><text text-anchor="end" x="79" y="4.199999999999999" style="font-family: 'Open Sans', verdana, arial, sans-serif; font-size: 12px; fill: rgb(42, 63, 95); fill-opacity: 1; white-space: pre; opacity: 1;" transform="translate(0,260.21000000000004)">200</text></g><g class="ytick"><text text-anchor="end" x="79" y="4.199999999999999" style="font-family: 'Open Sans', verdana, arial, sans-serif; font-size: 12px; fill: rgb(42, 63, 95); fill-opacity: 1; white-space: pre; opacity: 1;" transform="translate(0,189.31)">300</text></g><g class="ytick"><text text-anchor="end" x="79" y="4.199999999999999" style="font-family: 'Open Sans', verdana, arial, sans-serif; font-size: 12px; fill: rgb(42, 63, 95); fill-opacity: 1; white-space: pre; opacity: 1;" transform="translate(0,118.41)">400</text></g></g><g class="overaxes-above"/></g></g><g class="polarlayer"/><g class="smithlayer"/><g class="ternarylayer"/><g class="geolayer"/><g class="funnelarealayer"/><g class="pielayer"/><g class="iciclelayer"/><g class="treemaplayer"/><g class="sunburstlayer"/><g class="glimages"/><defs id="topdefs-9cd738"><g class="clips"/></defs><g class="layer-above"><g class="imagelayer"/><g class="shapelayer"/></g><g class="infolayer"><g class="g-gtitle"/><g class="g-xtitle"><text class="xtitle" x="350" y="460.3" text-anchor="middle" style="font-family: 'Open Sans', verdana, arial, sans-serif; font-size: 14px; fill: rgb(42, 63, 95); opacity: 1; font-weight: normal; white-space: pre;">wavelength</text></g><g class="g-ytitle"><text class="ytitle" transform="rotate(-90,31.793750000000003,240)" x="31.793750000000003" y="240" text-anchor="middle" style="font-family: 'Open Sans', verdana, arial, sans-serif; font-size: 14px; fill: rgb(42, 63, 95); opacity: 1; font-weight: normal; white-space: pre;">intensity</text></g></g></svg>
