<svg class="main-svg" xmlns="http://www.w3.org/2000/svg" xmlns:xlink="http://www.w3.org/1999/xlink" width="700" height="500" style="" viewBox="0 0 700 500"><rect x="0" y="0" width="700" height="500" style="fill: rgb(255, 255, 255); fill-opacity: 1;"/><defs id="defs-b505ee"><g class="clips"><clipPath id="clipb505eexyplot" class="plotclip"><rect width="500" height="360"/></clipPath><clipPath class="axesclip" id="clipb505eex"><rect x="80" y="0" width="500" height="500"/></clipPath><clipPath class="axesclip" id="clipb505eey"><rect x="0" y="60" width="700" height="360"/></clipPath><clipPath class="axesclip" id="clipb505eexy"><rect x="80" y="60" width="500" height="360"/></clipPath></g><g class="gradients"/><g class="patterns"/></defs><g class="bglayer"><rect class="bg" x="80" y="60" width="500" height="360" style="fill: rgb(229, 236, 246); fill-opacity: 1; stroke-width: 0;"/></g><g class="layer-below"><g class="imagelayer"/><g class="shapelayer"/></g><g class="cartesianlayer"><g class="subplot xy"><g class="layer-subplot"><g class="shapelayer"/><g class="imagelayer"/></g><g class="minor-gridlayer"><g class="x"/><g class="y"/></g><g class="gridlayer"><g class="x"><path class="xgrid crisp" transform="translate(219.16,0)" d="M0,60v360" style="stroke: rgb(255, 255, 255); stroke-opacity: 1; stroke-width: 1px;"/><path class="xgrid crisp" transform="translate(319.93,0)" d="M0,60v360" style="stroke: rgb(255, 255, 255); stroke-opacity: 1; stroke-width: 1px;"/><path class="xgrid crisp" transform="translate(420.7,0)" d="M0,60v360" style="stroke: rgb(255, 255, 255); stroke-opacity: 1; stroke-width: 1px;"/><path class="xgrid crisp" transform="translate(521.47,0)" d="M0,60v360" style="stroke: rgb(255, 255, 255); stroke-opacity: 1; stroke-width: 1px;"/></g><g class="y"><path class="ygrid crisp" transform="translate(0,409.06)" d="M80,0h500" style="stroke: rgb(255, 255, 255); stroke-opacity: 1; stroke-width: 1px;"/><path class="ygrid crisp" transform="translate(0,325.98)" d="M80,0h500" style="stroke: rgb(255, 255, 255); stroke-opacity: 1; stroke-width: 1px;"/><path class="ygrid crisp" transform="translate(0,284.45)" d="M80,0h500" style="stroke: rgb(255, 255, 255); stroke-opacity: 1; stroke-width: 1px;"/><path class="ygrid crisp" transform="translate(0,242.91)" d="M80,0h500" style="stroke: rgb(255, 255, 255); stroke-opacity: 1; stroke-width: 1px;"/><path class="ygrid crisp" transform="translate(0,201.37)" d="M80,0h500" style="stroke: rgb(255, 255, 255); stroke-opacity: 1; stroke-width: 1px;"/><path class="ygrid crisp" transform="translate(0,159.82999999999998)" d="M80,0h500" style="stroke: rgb(255, 255, 255); stroke-opacity: 1; stroke-width: 1px;"/><path class="ygrid crisp" transform="translate(0,118.28999999999999)" d="M80,0h500" style="stroke: rgb(255, 255, 255); stroke-opacity: 1; stroke-width: 1px;"/><path class="ygrid crisp" transform="translate(0,76.75)" d="M80,0h500" style="stroke: rgb(255, 255, 255); stroke-opacity: 1; stroke-width: 1px;"/></g></g><g class="zerolinelayer"><path class="xzl zl crisp" transform="translate(118.39,0)" d="M0,60v360" style="stroke: rgb(255, 255, 255); stroke-opacity: 1; stroke-width: 2px;"/><path class="yzl zl crisp" transform="translate(0,367.52)" d="M80,0h500" style="stroke: rgb(255, 255, 255); stroke-opacity: 1; stroke-width: 2px;"/></g><path class="xlines-below"/><path class="ylines-below"/><g class="overlines-below"/><g class="xaxislayer-below"/><g class="yaxislayer-below"/><g class="overaxes-below"/><g class="plot" transform="translate(80,60)" clip-path="url(#clipb505eexyplot)"><g class="scatterlayer mlayer"><g class="trace scatter trace6966b5" style="stroke-miterlimit: 2; opacity: 1;"><g class="fills"/><g class="errorbars"/><g class="lines"><path class="js-line" d="M0,342L1.07,327.88L2.13,301.71L3.2,304.2L4.27,295.06L6.4,312.09L7.46,302.54L8.53,303.37L9.6,301.71L10.66,291.32L11.73,304.2L12.8,303.37L13.86,298.8L14.93,303.37L16,298.8L17.06,302.54L18.13,303.37L19.19,306.28L20.26,305.45L22.39,303.37L23.46,300.05L24.53,306.69L25.59,301.71L26.66,298.38L27.73,303.78L28.79,311.68L29.86,302.12L30.92,291.74L31.99,295.89L33.06,303.37L34.12,302.54L35.19,299.22L36.25,312.09L37.32,300.05L38.39,307.52L39.45,294.23L40.52,291.74L42.65,270.14L43.72,229.43L45.85,171.28L46.91,143.45L47.98,75.74L49.04,68.68L51.17,20.91L52.24,18L53.3,43.75L54.37,28.8L55.43,44.58L56.5,40.85L58.63,76.98L59.69,82.38L61.82,100.25L62.89,109.38L65.02,119.35L66.08,114.78L67.15,110.63L68.21,132.23L69.27,142.62L70.34,133.89L71.4,153L72.47,149.68L73.53,139.29L74.59,150.51L75.66,148.43L76.72,152.58L78.85,167.12L79.91,167.12L80.97,166.29L82.04,182.91L83.1,169.62L84.16,181.66L85.23,187.06L86.29,181.66L87.35,187.06L88.41,175.43L89.48,192.88L90.54,178.75L91.6,202.02L92.66,187.89L93.73,186.65L94.79,191.22L95.85,189.97L96.91,198.69L99.03,210.74L100.09,208.25L101.16,204.92L102.22,204.51L103.28,217.8L104.34,207.42L105.4,192.05L106.46,201.18L107.52,205.75L108.58,204.09L109.64,217.8L110.7,211.98L112.82,223.2L113.88,219.88L114.94,218.63L116,229.85L117.06,226.52L118.12,216.55L119.18,233.17L120.24,221.95L121.3,219.05L122.35,230.26L123.41,226.52L124.47,229.02L125.53,239.82L126.59,224.03L127.65,231.09L128.7,224.86L130.82,236.49L131.88,235.25L132.93,223.62L133.99,229.02L135.05,238.57L136.11,227.35L137.16,229.85L138.22,234.83L140.33,230.68L141.39,241.89L142.44,238.98L143.5,243.97L145.61,252.28L146.67,246.88L147.72,240.23L148.78,253.11L149.83,249.37L150.89,248.54L154.05,240.65L155.11,244.38L156.16,248.54L157.21,243.14L158.27,245.63L159.32,255.6L160.38,245.22L161.43,242.72L162.48,251.86L163.54,253.94L164.59,248.95L165.64,258.09L167.75,246.46L168.8,248.95L169.85,254.35L170.9,249.37L171.95,244.8L173.01,247.29L175.11,260.58L176.16,257.26L177.21,254.35L178.26,261.42L179.31,271.38L180.36,258.09L181.41,262.66L182.46,259.34L183.51,253.94L184.56,253.11L185.61,258.09L186.66,258.51L187.71,261.42L188.76,255.18L189.81,261.83L190.86,253.11L191.91,253.94L192.96,274.29L194.01,263.91L195.06,267.65L197.15,263.91L198.2,275.54L199.25,253.52L200.29,266.4L201.34,261.42L202.39,261.83L204.48,273.46L205.53,257.68L206.58,257.26L207.62,262.66L209.71,277.2L210.76,270.55L211.81,265.98L212.85,265.15L213.9,270.55L214.94,259.34L218.08,270.55L219.12,264.74L220.17,270.14L221.21,264.74L222.26,275.95L223.3,273.88L225.39,263.08L226.43,267.23L228.52,258.92L229.56,275.12L230.6,275.12L231.65,271.8L232.69,269.72L233.73,270.97L234.77,267.23L235.81,270.55L236.86,271.8L237.9,270.55L238.94,259.75L239.98,269.72L241.02,268.89L242.06,277.2L243.1,271.38L244.15,277.62L245.19,275.12L246.23,282.18L247.27,277.62L248.31,279.69L250.39,268.89L251.43,278.03L252.47,269.72L253.51,280.94L254.54,282.6L255.58,274.29L256.62,281.77L257.66,273.46L258.7,271.8L259.74,277.62L260.78,275.12L261.82,280.52L262.85,280.11L263.89,289.25L264.93,289.25L265.97,281.77L268.04,285.92L269.08,274.29L271.15,291.74L272.19,275.12L273.23,284.68L274.26,276.78L275.3,272.22L276.34,289.25L277.37,274.29L278.41,273.46L279.44,288.83L280.48,284.68L281.51,280.11L282.55,283.43L283.59,280.52L284.62,287.58L285.66,284.26L286.69,286.34L288.76,280.94L289.79,279.69L290.83,279.28L291.86,286.34L292.9,285.51L293.93,278.03L294.96,290.91L296,286.75L297.03,278.86L298.07,280.94L299.1,280.94L300.13,282.6L301.17,286.34L302.2,280.52L303.23,288.42L304.26,290.08L305.3,287.17L306.33,288.42L307.36,284.26L308.39,289.66L309.43,278.86L310.46,286.75L312.52,284.68L313.55,290.49L314.59,279.28L315.62,289.66L316.65,284.68L317.68,291.32L319.74,279.69L320.77,287.58L321.8,292.57L322.83,287.58L323.87,287.58L324.9,291.32L325.93,281.35L326.96,290.91L327.99,295.48L329.02,281.77L330.05,291.32L331.08,280.52L332.11,283.02L333.14,292.15L334.17,285.09L335.2,289.66L336.23,291.74L337.26,285.92L339.32,292.57L340.34,282.18L341.37,285.92L342.4,286.75L343.43,286.75L344.46,288L345.49,292.98L346.52,292.57L347.55,292.57L348.58,298.38L349.61,290.91L350.63,301.71L351.66,283.43L352.69,290.08L353.72,290.91L354.75,285.92L357.83,305.03L358.86,299.22L359.89,291.74L360.92,294.23L361.94,281.77L362.97,299.22L364,294.23L365.03,293.4L366.06,284.68L367.08,298.38L368.11,284.68L369.14,290.08L370.17,288.83L371.19,292.15L372.22,299.22L373.25,287.17L374.28,295.89L375.31,286.34L377.36,301.29L378.39,295.06L379.41,287.17L380.44,294.23L381.47,297.14L382.5,287.58L383.52,292.15L384.55,301.29L386.61,292.15L387.63,302.12L388.66,292.57L389.69,296.31L390.72,297.55L391.74,300.46L392.77,286.75L393.8,298.8L395.85,288.83L396.88,294.23L398.93,289.66L399.96,302.54L402.02,287.17L403.04,291.32L404.07,300.88L405.1,294.65L406.12,298.8L407.15,283.85L408.18,286.75L409.21,285.51L410.23,294.65L411.26,295.48L412.29,300.05L413.32,293.82L414.35,291.32L415.37,297.97L416.4,295.48L417.43,286.34L418.46,302.54L419.48,292.57L420.51,299.63L421.54,299.22L422.57,300.88L423.6,293.82L425.65,291.32L426.68,301.71L427.71,290.91L428.74,295.48L429.77,294.23L430.8,304.62L432.85,298.8L433.88,289.25L434.91,299.63L435.94,288.42L438,293.82L439.03,292.15L440.06,298.38L441.09,295.48L442.12,292.15L443.15,295.89L445.2,300.05L446.23,291.32L447.26,299.22L448.3,293.82L449.33,300.46L450.36,293.4L451.39,283.85L452.42,300.05L453.45,293.82L454.48,295.06L455.51,301.29L456.54,297.14L457.57,303.78L458.6,296.72L460.67,302.12L461.7,298.38L465.83,300.88L466.86,295.06L467.89,290.49L468.93,293.82L469.96,306.28L470.99,295.89L472.03,302.12L473.06,302.95L475.13,303.37L476.16,302.12L478.23,301.71L479.26,295.48L480.3,298.38L481.33,297.97L483.4,293.4L484.44,301.29L485.48,304.62L486.51,297.14L487.55,307.94L488.58,297.14L489.62,297.55L490.66,296.72L491.7,303.37L492.73,300.88L494.81,297.97L495.85,303.78L496.88,305.03L497.92,314.17L498.96,342L500,342" style="vector-effect: none; fill: none; stroke: rgb(99, 110, 250); stroke-opacity: 1; stroke-width: 2px; opacity: 1;"/></g><g class="points"/><g class="text"/></g><g class="trace scatter traceb50528" style="stroke-miterlimit: 2; opacity: 1;"><g class="fills"/><g class="errorbars"/><g class="lines"><path class="js-line" d="M57.56,72.44L63.95,108.68L65.02,113.81L71.4,140.25L72.47,144.02L78.85,163.6L79.91,166.42L87.35,183.34L88.41,185.41L95.85,198.01L96.91,199.58L105.4,210.49L106.46,211.68L116,221.07L117.06,221.99L128.7,230.87L129.76,231.58L142.44,239.28L143.5,239.86L160.38,248.15L161.43,248.62L182.46,257.04L183.51,257.42L210.76,266.25L211.81,266.56L239.98,273.93L241.02,274.17L268.04,279.93L269.08,280.13L278.41,281.87" style="vector-effect: none; fill: none; stroke: rgb(239, 85, 59); stroke-opacity: 1; stroke-width: 2px; opacity: 1;"/></g><g class="points"/><g class="text"/></g></g></g><g class="overplot"/><path class="xlines-above crisp" d="M0,0" style="fill: none;"/><path class="ylines-above crisp" d="M0,0" style="fill: none;"/><g class="overlines-above"/><g class="xaxislayer-above"><g class="xtick"><text text-anchor="middle" x="0" y="433" transform="translate(118.39,0)" style="font-family: 'Open Sans', verdana, arial, sans-serif; font-size: 12px; fill: rgb(42, 63, 95); fill-opacity: 1; white-space: pre; opacity: 1;">0</text></g><g class="xtick"><text text-anchor="middle" x="0" y="433" style="font-family: 'Open Sans', verdana, arial, sans-serif; font-size: 12px; fill: rgb(42, 63, 95); fill-opacity: 1; white-space: pre; opacity: 1;" transform="translate(219.16,0)">2</text></g><g class="xtick"><text text-anchor="middle" x="0" y="433" style="font-family: 'Open Sans', verdana, arial, sans-serif; font-size: 12px; fill: rgb(42, 63, 95); fill-opacity: 1; white-space: pre; opacity: 1;" transform="translate(319.93,0)">4</text></g><g class="xtick"><text text-anchor="middle" x="0" y="433" style="font-family: 'Open Sans', verdana, arial, sans-serif; font-size: 12px; fill: rgb(42, 63, 95); fill-opacity: 1; white-space: pre; opacity: 1;" transform="translate(420.7,0)">6</text></g><g class="xtick"><text text-anchor="middle" x="0" y="433" style="font-family: 'Open Sans', verdana, arial, sans-serif; font-size: 12px; fill: rgb(42, 63, 95); fill-opacity: 1; white-space: pre; opacity: 1;" transform="translate(521.47,0)">8</text></g></g><g class="yaxislayer-above"><g class="ytick"><text text-anchor="end" x="79" y="4.199999999999999" transform="translate(0,409.06)" style="font-family: 'Open Sans', verdana, arial, sans-serif; font-size: 12px; fill: rgb(42, 63, 95); fill-opacity: 1; white-space: pre; opacity: 1;">−100</text></g><g class="ytick"><text text-anchor="end" x="79" y="4.199999999999999" style="font-family: 'Open Sans', verdana, arial, sans-serif; font-size: 12px; fill: rgb(42, 63, 95); fill-opacity: 1; white-space: pre; opacity: 1;" transform="translate(0,367.52)">0</text></g><g class="ytick"><text text-anchor="end" x="79" y="4.199999999999999" style="font-family: 'Open Sans', verdana, arial, sans-serif; font-size: 12px; fill: rgb(42, 63, 95); fill-opacity: 1; white-space: pre; opacity: 1;" transform="translate(0,325.98)">100</text></g><g class="ytick"><text text-anchor="end" x="79" y="4.199999999999999" style="font-family: 'Open Sans', verdana, arial, sans-serif; font-size: 12px; fill: rgb(42, 63, 95); fill-opacity: 1; white-space: pre; opacity: 1;" transform="translate(0,284.45)">200</text></g><g class="ytick"><text text-anchor="end" x="79" y="4.199999999999999" style="font-family: 'Open Sans', verdana, arial, sans-serif; font-size: 12px; fill: rgb(42, 63, 95); fill-opacity: 1; white-space: pre; opacity: 1;" transform="translate(0,242.91)">300</text></g><g class="ytick"><text text-anchor="end" x="79" y="4.199999999999999" style="font-family: 'Open Sans', verdana, arial, sans-serif; font-size: 12px; fill: rgb(42, 63, 95); fill-opacity: 1; white-space: pre; opacity: 1;" transform="translate(0,201.37)">400</text></g><g class="ytick"><text text-anchor="end" x="79" y="4.199999999999999" style="font-family: 'Open Sans', verdana, arial, sans-serif; font-size: 12px; fill: rgb(42, 63, 95); fill-opacity: 1; white-space: pre; opacity: 1;" transform="translate(0,159.82999999999998)">500</text></g><g class="ytick"><text text-anchor="end" x="79" y="4.199999999999999" style="font-family: 'Open Sans', verdana, arial, sans-serif; font-size: 12px; fill: rgb(42, 63, 95); fill-opacity: 1; white-space: pre; opacity: 1;" transform="translate(0,118.28999999999999)">600</text></g><g class="ytick"><text text-anchor="end" x="79" y="4.199999999999999" style="font-family: 'Open Sans', verdana, arial, sans-serif; font-size: 12px; fill: rgb(42, 63, 95); fill-opacity: 1; white-space: pre; opacity: 1;" transform="translate(0,76.75)">700</text></g></g><g class="overaxes-above"/></g></g><g class="polarlayer"/><g class="smithlayer"/><g class="ternarylayer"/><g class="geolayer"/><g class="funnelarealayer"/><g class="pielayer"/><g class="iciclelayer"/><g class="treemaplayer"/><g class="sunburstlayer"/><g class="glimages"/><defs id="topdefs-b505ee"><g class="clips"/><clipPath id="legendb505ee"><rect width="98" height="67" x="0" y="0"/></clipPath></defs><g class="layer-above"><g class="imagelayer"/><g class="shapelayer"/></g><g class="infolayer"><g class="legend" pointer-events="all" transform="translate(590,60)"><rect class="bg" shape-rendering="crispEdges" style="stroke: rgb(68, 68, 68); stroke-opacity: 1; fill: rgb(255, 255, 255); fill-opacity: 1; stroke-width: 0px;" width="98" height="67" x="0" y="0"/><g class="scrollbox" transform="" clip-path="url(#legendb505ee)"><text class="legendtitletext" text-anchor="start" x="2" y="18.2" style="font-family: 'Open Sans', verdana, arial, sans-serif; font-size: 14px; fill: rgb(42, 63, 95); fill-opacity: 1; white-space: pre;">variable</text><g class="groups" transform=""><g class="traces" transform="translate(0,32.7)" style="opacity: 1;"><text class="legendtext" text-anchor="start" x="40" y="4.680000000000001" style="font-family: 'Open Sans', verdana, arial, sans-serif; font-size: 12px; fill: rgb(42, 63, 95); fill-opacity: 1; white-space: pre;">intensity</text><g class="layers" style="opacity: 1;"><g class="legendfill"/><g class="legendlines"><path class="js-line" d="M5,0h30" style="fill: none; stroke: rgb(99, 110, 250); stroke-opacity: 1; stroke-width: 2px;"/></g><g class="legendsymbols"><g class="legendpoints"/></g></g><rect class="legendtoggle" x="0" y="-9.5" width="92.03125" height="19" style="fill: rgb(0, 0, 0); fill-opacity: 0;"/></g></g><g class="groups" transform=""><g class="traces" transform="translate(0,51.7)" style="opacity: 1;"><text class="legendtext" text-anchor="start" x="40" y="4.680000000000001" style="font-family: 'Open Sans', verdana, arial, sans-serif; font-size: 12px; fill: rgb(42, 63, 95); fill-opacity: 1; white-space: pre;">fit</text><g class="layers" style="opacity: 1;"><g class="legendfill"/><g class="legendlines"><path class="js-line" d="M5,0h30" style="fill: none; stroke: rgb(239, 85, 59); stroke-opacity: 1; stroke-width: 2px;"/></g><g class="legendsymbols"><g class="legendpoints"/></g></g><rect class="legendtoggle" x="0" y="-9.5" width="92.03125" height="19" style="fill: rgb(0, 0, 0); fill-opacity: 0;"/></g></g></g><rect class="scrollbar" rx="20" ry="3" width="0" height="0" style="fill: rgb(128, 139, 164); fill-opacity: 1;" x="0" y="0"/></g><g class="g-gtitle"/><g class="g-xtitle"><text class="xtitle" x="330" y="460.3" text-anchor="middle" style="font-family: 'Open Sans', verdana, arial, sans-serif; font-size: 14px; fill: rgb(42, 63, 95); opacity: 1; font-weight: normal; white-space: pre;">time</text></g><g class="g-ytitle"><text class="ytitle" transform="rotate(-90,21.731250000000003,240)" x="21.731250000000003" y="240" text-anchor="middle" style="font-family: 'Open Sans', verdana, arial, sans-serif; font-size: 14px; fill: rgb(42, 63, 95); opacity: 1; font-weight: normal; white-space: pre;">value</text></g></g></svg>
