<svg class="main-svg" xmlns="http://www.w3.org/2000/svg" xmlns:xlink="http://www.w3.org/1999/xlink" width="700" height="500" style="" viewBox="0 0 700 500"><rect x="0" y="0" width="700" height="500" style="fill: rgb(255, 255, 255); fill-opacity: 1;"/><defs id="defs-6682f3"><g class="clips"><clipPath id="clip6682f3xyplot" class="plotclip"><rect width="540" height="360"/></clipPath><clipPath class="axesclip" id="clip6682f3x"><rect x="80" y="0" width="540" height="500"/></clipPath><clipPath class="axesclip" id="clip6682f3y"><rect x="0" y="60" width="700" height="360"/></clipPath><clipPath class="axesclip" id="clip6682f3xy"><rect x="80" y="60" width="540" height="360"/></clipPath></g><g class="gradients"/><g class="patterns"/></defs><g class="bglayer"><rect class="bg" x="80" y="60" width="540" height="360" style="fill: rgb(229, 236, 246); fill-opacity: 1; stroke-width: 0;"/></g><g class="layer-below"><g class="imagelayer"/><g class="shapelayer"/></g><g class="cartesianlayer"><g class="subplot xy"><g class="layer-subplot"><g class="shapelayer"/><g class="imagelayer"/></g><g class="minor-gridlayer"><g class="x"/><g class="y"/></g><g class="gridlayer"><g class="x"><path class="xgrid crisp" transform="translate(230.29,0)" d="M0,60v360" style="stroke: rgb(255, 255, 255); stroke-opacity: 1; stroke-width: 1px;"/><path class="xgrid crisp" transform="translate(339.12,0)" d="M0,60v360" style="stroke: rgb(255, 255, 255); stroke-opacity: 1; stroke-width: 1px;"/><path class="xgrid crisp" transform="translate(447.95,0)" d="M0,60v360" style="stroke: rgb(255, 255, 255); stroke-opacity: 1; stroke-width: 1px;"/><path class="xgrid crisp" transform="translate(556.79,0)" d="M0,60v360" style="stroke: rgb(255, 255, 255); stroke-opacity: 1; stroke-width: 1px;"/></g><g class="y"><path class="ygrid crisp" transform="translate(0,409.06)" d="M80,0h540" style="stroke: rgb(255, 255, 255); stroke-opacity: 1; stroke-width: 1px;"/><path class="ygrid crisp" transform="translate(0,325.98)" d="M80,0h540" style="stroke: rgb(255, 255, 255); stroke-opacity: 1; stroke-width: 1px;"/><path class="ygrid crisp" transform="translate(0,284.45)" d="M80,0h540" style="stroke: rgb(255, 255, 255); stroke-opacity: 1; stroke-width: 1px;"/><path class="ygrid crisp" transform="translate(0,242.91)" d="M80,0h540" style="stroke: rgb(255, 255, 255); stroke-opacity: 1; stroke-width: 1px;"/><path class="ygrid crisp" transform="translate(0,201.37)" d="M80,0h540" style="stroke: rgb(255, 255, 255); stroke-opacity: 1; stroke-width: 1px;"/><path class="ygrid crisp" transform="translate(0,159.82999999999998)" d="M80,0h540" style="stroke: rgb(255, 255, 255); stroke-opacity: 1; stroke-width: 1px;"/><path class="ygrid crisp" transform="translate(0,118.28999999999999)" d="M80,0h540" style="stroke: rgb(255, 255, 255); stroke-opacity: 1; stroke-width: 1px;"/><path class="ygrid crisp" transform="translate(0,76.75)" d="M80,0h540" style="stroke: rgb(255, 255, 255); stroke-opacity: 1; stroke-width: 1px;"/></g></g><g class="zerolinelayer"><path class="xzl zl crisp" transform="translate(121.46000000000001,0)" d="M0,60v360" style="stroke: rgb(255, 255, 255); stroke-opacity: 1; stroke-width: 2px;"/><path class="yzl zl crisp" transform="translate(0,367.52)" d="M80,0h540" style="stroke: rgb(255, 255, 255); stroke-opacity: 1; stroke-width: 2px;"/></g><path class="xlines-below"/><path class="ylines-below"/><g class="overlines-below"/><g class="xaxislayer-below"/><g class="yaxislayer-below"/><g class="overaxes-below"/><g class="plot" transform="translate(80,60)" clip-path="url(#clip6682f3xyplot)"><g class="scatterlayer mlayer"><g class="trace scatter tracea4e991" style="stroke-miterlimit: 2; opacity: 1;"><g class="fills"/><g class="errorbars"/><g class="lines"><path class="js-line" d="M0,342L1.15,327.88L2.3,301.71L3.45,304.2L4.61,295.06L6.91,312.09L8.06,302.54L9.21,303.37L10.37,301.71L11.52,291.32L12.67,304.2L13.82,303.37L14.97,298.8L16.12,303.37L17.28,298.8L18.43,302.54L19.58,303.37L20.73,306.28L21.88,305.45L24.19,303.37L25.34,300.05L26.49,306.69L27.64,301.71L28.79,298.38L29.94,303.78L31.1,311.68L32.25,302.12L33.4,291.74L34.55,295.89L35.7,303.37L36.85,302.54L38,299.22L39.15,312.09L40.31,300.05L41.46,307.52L42.61,294.23L43.76,291.74L46.06,270.14L47.21,229.43L49.51,171.28L50.67,143.45L51.82,75.74L52.97,68.68L55.27,20.91L56.42,18L57.57,43.75L58.72,28.8L59.87,44.58L61.02,40.85L63.32,76.98L64.47,82.38L65.62,89.03L66.77,100.25L69.07,115.62L70.22,119.35L72.52,110.63L73.67,132.23L74.82,142.62L75.97,133.89L77.11,153L78.26,149.68L79.41,139.29L80.56,150.51L81.71,148.43L82.86,152.58L85.16,167.12L86.3,167.12L87.45,166.29L88.6,182.91L89.75,169.62L90.9,181.66L92.04,187.06L93.19,181.66L94.34,187.06L95.49,175.43L96.63,192.88L97.78,178.75L98.93,202.02L100.08,187.89L101.22,186.65L102.37,191.22L103.52,189.97L104.66,198.69L106.96,210.74L108.1,208.25L109.25,204.92L110.39,204.51L111.54,217.8L112.69,207.42L113.83,192.05L114.98,201.18L116.12,205.75L117.27,204.09L118.41,217.8L119.56,211.98L121.85,223.2L122.99,219.88L124.14,218.63L125.28,229.85L126.42,226.52L127.57,216.55L128.71,233.17L129.86,221.95L131,219.05L132.14,230.26L133.29,226.52L134.43,229.02L135.57,239.82L136.72,224.03L137.86,231.09L139,224.86L140.14,233.58L141.29,236.49L142.43,235.25L143.57,223.62L144.71,229.02L145.85,238.57L146.99,227.35L148.14,229.85L149.28,234.83L150.42,232.75L151.56,230.68L152.7,241.89L153.84,238.98L154.98,243.97L157.26,252.28L158.4,246.88L159.54,240.23L160.68,253.11L161.82,249.37L162.96,248.54L165.24,243.55L166.38,240.65L168.65,248.54L169.79,243.14L170.93,245.63L172.07,255.6L173.21,245.22L174.34,242.72L175.48,251.86L176.62,253.94L177.76,248.95L178.89,258.09L181.17,246.46L182.3,248.95L183.44,254.35L184.58,249.37L185.71,244.8L186.85,247.29L189.12,260.58L190.25,257.26L191.39,254.35L192.52,261.42L193.66,271.38L194.79,258.09L195.93,262.66L197.06,259.34L198.2,253.94L199.33,253.11L200.46,258.09L201.6,258.51L202.73,261.42L203.86,255.18L205,261.83L206.13,253.11L207.26,253.94L208.4,274.29L209.53,263.91L210.66,267.65L212.92,263.91L214.06,275.54L215.19,253.52L216.32,266.4L217.45,261.42L218.58,261.83L220.84,273.46L221.97,257.68L223.1,257.26L224.23,262.66L225.36,268.06L226.49,277.2L228.75,265.98L229.88,265.15L231.01,270.55L232.14,259.34L235.52,270.55L236.65,264.74L237.78,270.14L238.91,264.74L240.04,275.95L241.16,273.88L243.42,263.08L244.54,267.23L246.8,258.92L247.92,275.12L249.05,275.12L250.18,271.8L251.3,269.72L252.43,270.97L253.55,267.23L254.68,270.55L255.8,271.8L256.93,270.55L258.05,259.75L259.18,269.72L260.3,268.89L261.43,277.2L262.55,271.38L263.68,277.62L264.8,275.12L265.92,282.18L267.05,277.62L268.17,279.69L270.42,268.89L271.54,278.03L272.66,269.72L273.79,280.94L274.91,282.6L276.03,274.29L277.15,281.77L278.27,273.46L279.4,271.8L280.52,277.62L281.64,275.12L282.76,280.52L283.88,280.11L285,289.25L286.12,289.25L287.24,281.77L289.49,285.92L290.61,274.29L292.85,291.74L293.97,275.12L295.08,284.68L296.2,276.78L297.32,272.22L298.44,289.25L299.56,274.29L300.68,273.46L301.8,288.83L302.92,284.68L304.04,280.11L305.15,283.43L306.27,280.52L307.39,287.58L308.51,284.26L309.63,286.34L311.86,280.94L312.98,279.69L314.1,279.28L315.21,286.34L316.33,285.51L317.45,278.03L318.56,290.91L319.68,286.75L320.79,278.86L321.91,280.94L323.03,280.94L324.14,282.6L325.26,286.34L326.37,280.52L327.49,288.42L328.61,290.08L329.72,287.17L330.84,288.42L331.95,284.26L333.07,289.66L334.18,278.86L335.29,286.75L337.52,284.68L338.64,290.49L339.75,279.28L340.87,289.66L341.98,284.68L343.09,291.32L345.32,279.69L346.43,287.58L347.55,292.57L348.66,287.58L349.77,287.58L350.89,291.32L352,281.35L353.11,290.91L354.23,295.48L355.34,281.77L356.45,291.32L357.56,280.52L358.68,283.02L359.79,292.15L360.9,285.09L362.01,289.66L363.13,291.74L364.24,285.92L366.46,292.57L367.57,282.18L368.68,285.92L369.8,286.75L370.91,286.75L372.02,288L373.13,292.98L374.24,292.57L375.35,292.57L376.46,298.38L377.57,290.91L378.68,301.71L379.8,283.43L380.91,290.08L382.02,290.91L383.13,285.92L386.46,305.03L387.57,299.22L388.68,291.74L389.79,294.23L390.9,281.77L392.01,299.22L393.12,294.23L394.23,293.4L395.34,284.68L396.45,298.38L397.56,284.68L398.67,290.08L399.78,288.83L400.89,292.15L402,299.22L403.11,287.17L404.22,295.89L405.33,286.34L407.55,301.29L408.66,295.06L409.77,287.17L410.88,294.23L411.99,297.14L413.1,287.58L414.21,292.15L415.32,301.29L417.53,292.15L418.64,302.12L419.75,292.57L420.86,296.31L421.97,297.55L423.08,300.46L424.19,286.75L425.3,298.8L427.52,288.83L428.63,294.23L430.85,289.66L431.96,302.54L434.18,287.17L435.29,291.32L436.4,300.88L437.51,294.65L438.61,298.8L439.72,283.85L440.83,286.75L441.94,285.51L443.05,294.65L444.16,295.48L445.27,300.05L446.38,293.82L447.49,291.32L448.6,297.97L449.71,295.48L450.82,286.34L451.93,302.54L453.04,292.57L454.15,299.63L455.26,299.22L456.37,300.88L457.48,293.82L459.71,291.32L460.82,301.71L461.93,290.91L463.04,295.48L464.15,294.23L465.26,304.62L466.37,300.05L467.48,298.8L468.59,289.25L469.7,299.63L470.81,288.42L471.93,292.57L473.04,293.82L474.15,292.15L475.26,298.38L476.37,295.48L477.48,292.15L478.6,295.89L479.71,299.22L480.82,300.05L481.93,291.32L483.05,299.22L484.16,293.82L485.27,300.46L487.5,283.85L488.61,300.05L489.72,293.82L490.84,295.06L491.95,301.29L493.06,297.14L494.18,303.78L495.29,296.72L497.52,302.12L498.63,298.38L503.09,300.88L504.21,295.06L505.32,290.49L506.44,293.82L507.56,306.28L508.67,295.89L509.79,302.12L510.9,302.95L513.14,303.37L514.25,302.12L516.49,301.71L517.61,295.48L518.72,298.38L519.84,297.97L522.08,293.4L523.2,301.29L524.31,304.62L525.43,297.14L526.55,307.94L527.67,297.14L528.79,297.55L529.91,296.72L531.03,303.37L532.15,300.88L534.39,297.97L535.51,303.78L536.63,305.03L537.76,314.17L538.88,342L540,342" style="vector-effect: none; fill: none; stroke: rgb(99, 110, 250); stroke-opacity: 1; stroke-width: 2px; opacity: 1;"/></g><g class="points"/><g class="text"/></g></g></g><g class="overplot"/><path class="xlines-above crisp" d="M0,0" style="fill: none;"/><path class="ylines-above crisp" d="M0,0" style="fill: none;"/><g class="overlines-above"/><g class="xaxislayer-above"><g class="xtick"><text text-anchor="middle" x="0" y="433" transform="translate(121.46000000000001,0)" style="font-family: 'Open Sans', verdana, arial, sans-serif; font-size: 12px; fill: rgb(42, 63, 95); fill-opacity: 1; white-space: pre; opacity: 1;">0</text></g><g class="xtick"><text text-anchor="middle" x="0" y="433" style="font-family: 'Open Sans', verdana, arial, sans-serif; font-size: 12px; fill: rgb(42, 63, 95); fill-opacity: 1; white-space: pre; opacity: 1;" transform="translate(230.29,0)">2</text></g><g class="xtick"><text text-anchor="middle" x="0" y="433" style="font-family: 'Open Sans', verdana, arial, sans-serif; font-size: 12px; fill: rgb(42, 63, 95); fill-opacity: 1; white-space: pre; opacity: 1;" transform="translate(339.12,0)">4</text></g><g class="xtick"><text text-anchor="middle" x="0" y="433" style="font-family: 'Open Sans', verdana, arial, sans-serif; font-size: 12px; fill: rgb(42, 63, 95); fill-opacity: 1; white-space: pre; opacity: 1;" transform="translate(447.95,0)">6</text></g><g class="xtick"><text text-anchor="middle" x="0" y="433" style="font-family: 'Open Sans', verdana, arial, sans-serif; font-size: 12px; fill: rgb(42, 63, 95); fill-opacity: 1; white-space: pre; opacity: 1;" transform="translate(556.79,0)">8</text></g></g><g class="yaxislayer-above"><g class="ytick"><text text-anchor="end" x="79" y="4.199999999999999" transform="translate(0,409.06)" style="font-family: 'Open Sans', verdana, arial, sans-serif; font-size: 12px; fill: rgb(42, 63, 95); fill-opacity: 1; white-space: pre; opacity: 1;">−100</text></g><g class="ytick"><text text-anchor="end" x="79" y="4.199999999999999" style="font-family: 'Open Sans', verdana, arial, sans-serif; font-size: 12px; fill: rgb(42, 63, 95); fill-opacity: 1; white-space: pre; opacity: 1;" transform="translate(0,367.52)">0</text></g><g class="ytick"><text text-anchor="end" x="79" y="4.199999999999999" style="font-family: 'Open Sans', verdana, arial, sans-serif; font-size: 12px; fill: rgb(42, 63, 95); fill-opacity: 1; white-space: pre; opacity: 1;" transform="translate(0,325.98)">100</text></g><g class="ytick"><text text-anchor="end" x="79" y="4.199999999999999" style="font-family: 'Open Sans', verdana, arial, sans-serif; font-size: 12px; fill: rgb(42, 63, 95); fill-opacity: 1; white-space: pre; opacity: 1;" transform="translate(0,284.45)">200</text></g><g class="ytick"><text text-anchor="end" x="79" y="4.199999999999999" style="font-family: 'Open Sans', verdana, arial, sans-serif; font-size: 12px; fill: rgb(42, 63, 95); fill-opacity: 1; white-space: pre; opacity: 1;" transform="translate(0,242.91)">300</text></g><g class="ytick"><text text-anchor="end" x="79" y="4.199999999999999" style="font-family: 'Open Sans', verdana, arial, sans-serif; font-size: 12px; fill: rgb(42, 63, 95); fill-opacity: 1; white-space: pre; opacity: 1;" transform="translate(0,201.37)">400</text></g><g class="ytick"><text text-anchor="end" x="79" y="4.199999999999999" style="font-family: 'Open Sans', verdana, arial, sans-serif; font-size: 12px; fill: rgb(42, 63, 95); fill-opacity: 1; white-space: pre; opacity: 1;" transform="translate(0,159.82999999999998)">500</text></g><g class="ytick"><text text-anchor="end" x="79" y="4.199999999999999" style="font-family: 'Open Sans', verdana, arial, sans-serif; font-size: 12px; fill: rgb(42, 63, 95); fill-opacity: 1; white-space: pre; opacity: 1;" transform="translate(0,118.28999999999999)">600</text></g><g class="ytick"><text text-anchor="end" x="79" y="4.199999999999999" style="font-family: 'Open Sans', verdana, arial, sans-serif; font-size: 12px; fill: rgb(42, 63, 95); fill-opacity: 1; white-space: pre; opacity: 1;" transform="translate(0,76.75)">700</text></g></g><g class="overaxes-above"/></g></g><g class="polarlayer"/><g class="smithlayer"/><g class="ternarylayer"/><g class="geolayer"/><g class="funnelarealayer"/><g class="pielayer"/><g class="iciclelayer"/><g class="treemaplayer"/><g class="sunburstlayer"/><g class="glimages"/><defs id="topdefs-6682f3"><g class="clips"/></defs><g class="layer-above"><g class="imagelayer"/><g class="shapelayer"/></g><g class="infolayer"><g class="g-gtitle"/><g class="g-xtitle"><text class="xtitle" x="350" y="460.3" text-anchor="middle" style="font-family: 'Open Sans', verdana, arial, sans-serif; font-size: 14px; fill: rgb(42, 63, 95); opacity: 1; font-weight: normal; white-space: pre;">time</text></g><g class="g-ytitle"><text class="ytitle" transform="rotate(-90,21.731250000000003,240)" x="21.731250000000003" y="240" text-anchor="middle" style="font-family: 'Open Sans', verdana, arial, sans-serif; font-size: 14px; fill: rgb(42, 63, 95); opacity: 1; font-weight: normal; white-space: pre;">intensity</text></g></g></svg>
