<svg class="main-svg" xmlns="http://www.w3.org/2000/svg" xmlns:xlink="http://www.w3.org/1999/xlink" width="700" height="500" style="" viewBox="0 0 700 500"><rect x="0" y="0" width="700" height="500" style="fill: rgb(255, 255, 255); fill-opacity: 1;"/><defs id="defs-310886"><g class="clips"><clipPath id="clip310886xyplot" class="plotclip"><rect width="540" height="360"/></clipPath><clipPath class="axesclip" id="clip310886x"><rect x="80" y="0" width="540" height="500"/></clipPath><clipPath class="axesclip" id="clip310886y"><rect x="0" y="60" width="700" height="360"/></clipPath><clipPath class="axesclip" id="clip310886xy"><rect x="80" y="60" width="540" height="360"/></clipPath></g><g class="gradients"/><g class="patterns"/></defs><g class="bglayer"><rect class="bg" x="80" y="60" width="540" height="360" style="fill: rgb(229, 236, 246); fill-opacity: 1; stroke-width: 0;"/></g><g class="layer-below"><g class="imagelayer"/><g class="shapelayer"/></g><g class="cartesianlayer"><g class="subplot xy"><g class="layer-subplot"><g class="shapelayer"/><g class="imagelayer"/></g><g class="minor-gridlayer"><g class="x"/><g class="y"/></g><g class="gridlayer"><g class="x"><path class="xgrid crisp" transform="translate(134,0)" d="M0,60v360" style="stroke: rgb(255, 255, 255); stroke-opacity: 1; stroke-width: 1px;"/><path class="xgrid crisp" transform="translate(242,0)" d="M0,60v360" style="stroke: rgb(255, 255, 255); stroke-opacity: 1; stroke-width: 1px;"/><path class="xgrid crisp" transform="translate(458,0)" d="M0,60v360" style="stroke: rgb(255, 255, 255); stroke-opacity: 1; stroke-width: 1px;"/><path class="xgrid crisp" transform="translate(566,0)" d="M0,60v360" style="stroke: rgb(255, 255, 255); stroke-opacity: 1; stroke-width: 1px;"/></g><g class="y"><path class="ygrid crisp" transform="translate(0,368.74)" d="M80,0h540" style="stroke: rgb(255, 255, 255); stroke-opacity: 1; stroke-width: 1px;"/><path class="ygrid crisp" transform="translate(0,303.99)" d="M80,0h540" style="stroke: rgb(255, 255, 255); stroke-opacity: 1; stroke-width: 1px;"/><path class="ygrid crisp" transform="translate(0,239.23)" d="M80,0h540" style="stroke: rgb(255, 255, 255); stroke-opacity: 1; stroke-width: 1px;"/><path class="ygrid crisp" transform="translate(0,174.47)" d="M80,0h540" style="stroke: rgb(255, 255, 255); stroke-opacity: 1; stroke-width: 1px;"/><path class="ygrid crisp" transform="translate(0,109.71000000000001)" d="M80,0h540" style="stroke: rgb(255, 255, 255); stroke-opacity: 1; stroke-width: 1px;"/></g></g><g class="zerolinelayer"><path class="xzl zl crisp" transform="translate(350,0)" d="M0,60v360" style="stroke: rgb(255, 255, 255); stroke-opacity: 1; stroke-width: 2px;"/></g><path class="xlines-below"/><path class="ylines-below"/><g class="overlines-below"/><g class="xaxislayer-below"/><g class="yaxislayer-below"/><g class="overaxes-below"/><g class="plot" transform="translate(80,60)" clip-path="url(#clip310886xyplot)"><g class="scatterlayer mlayer"><g class="trace scatter tracebf7ee5" style="stroke-miterlimit: 2; opacity: 1;"><g class="fills"/><g class="errorbars"/><g class="lines"><path class="js-line" d="M0,340.49L1.08,340.98L1.62,340.8L3.24,341.42L3.78,340.8L4.86,341.02L5.41,341.09L8.11,341.32L8.65,340.62L10.27,341.65L10.81,341.33L15.68,340.97L16.22,340.7L17.3,341.04L17.84,341.08L19.46,341.44L20,341.33L20.54,340.93L21.08,341.68L22.16,340.48L22.7,341.11L23.78,341.4L24.32,341.41L25.41,341.23L25.95,341.15L28.11,341.4L28.65,341.28L34.05,341.33L34.59,341.7L35.68,341.15L36.22,340.89L39.46,341.42L40,340.58L40.54,340.9L41.08,340.33L42.7,341.06L43.24,341.43L45.95,341.12L46.49,340.69L47.57,341.19L48.11,340.7L48.65,341.08L49.19,340.48L51.35,341.33L51.89,341.07L53.51,341.49L54.05,340.57L55.14,341.4L55.68,341.07L56.76,341.51L57.3,341.12L58.38,340.85L58.92,341.59L59.46,341.25L60,341.87L60.54,340.88L61.08,341.5L62.7,340.94L63.24,341.06L63.78,341.28L64.32,340.51L66.49,341.21L67.03,341.06L68.65,341.24L69.19,341.58L69.73,341.85L70.27,340.72L72.43,341.77L72.97,341.45L74.59,340.68L75.14,340.66L75.68,340.66L76.22,341.49L78.92,341.05L79.46,341.41L81.08,340.4L81.62,340.87L82.7,340.86L83.24,340.86L83.78,340.36L84.32,341.74L85.95,340.53L86.49,341.59L87.57,340.82L88.11,341.15L88.65,340.52L89.19,341.45L90.81,340.52L91.35,341.15L92.43,341.21L92.97,340.8L94.05,341.51L94.59,341.12L95.68,341.35L96.22,341.48L97.3,340.9L97.84,341.49L98.92,341.17L99.46,341.19L100,340.28L100.54,341.56L102.16,340.73L102.7,341.45L103.78,341.43L104.32,340.68L105.41,341.56L105.95,340.5L106.49,341.51L107.03,341.18L107.57,341.09L109.19,340.77L109.73,341.08L110.27,340.3L110.81,341.54L114.59,340.87L115.14,340.96L116.22,341.41L116.76,340.57L118.92,341.04L119.46,340.73L121.08,341.64L121.62,341.19L122.16,341.76L122.7,341.02L126.49,341.29L127.03,342L128.11,340.89L128.65,341.12L129.73,341.31L130.27,340.28L131.89,341.21L132.43,341.25L136.22,341.48L136.76,341.66L139.46,340.65L140,341.37L141.62,341.34L142.16,341.61L143.78,341.36L144.32,341.13L146.49,340.84L147.03,341.55L148.65,341.41L149.19,341.26L149.73,340.82L150.27,341.5L151.89,340.89L152.43,341.14L153.51,340.89L154.05,340.68L154.59,341.44L155.14,340.67L156.76,341.2L157.3,340.48L158.38,340.98L158.92,340.99L159.46,341.54L160,340.85L161.62,340.94L162.16,18L167.57,48.76L168.11,51.73L176.22,92.28L176.76,94.86L185.95,133.15L186.49,134.78L195.14,165.78L195.68,167.25L200,181.16L200.54,182.44L208.11,203.38L208.65,204.59L211.89,213.08L212.43,213.87L214.05,217.96L214.59,219.23L217.3,224.73L217.84,226.3L221.62,233.7L222.16,234.72L224.86,239.82L225.41,240.68L228.11,246.42L228.65,247.18L231.35,251.43L231.89,252.95L232.97,254.14L233.51,255.12L234.05,255.64L234.59,257.5L235.68,258.24L236.22,259.86L237.3,260.6L237.84,261.82L240,264.82L240.54,264.94L242.16,268.36L242.7,268.33L244.86,271.32L245.41,271.32L247.03,274.15L247.57,274.55L250.27,278.63L250.81,278.08L251.89,279.98L252.43,280.22L253.51,281.52L254.05,281.6L262.16,290.78L262.7,291L264.32,291.53L264.86,293.19L267.03,295.02L267.57,295.53L268.11,295.01L268.65,295.75L269.73,297.04L270.27,296.84L271.89,298.62L272.43,299.41L272.97,299.39L273.51,300.17L275.68,302.23L276.22,301.74L278.92,304.26L279.46,303.63L280.54,304.88L281.08,304.95L282.16,306.52L282.7,305.94L284.32,307.51L284.86,308.05L285.41,308.09L285.95,308.91L287.57,309.6L288.11,309.78L299.46,315.68L300,315.63L301.62,316.79L302.16,316.97L302.7,316.83L303.24,317.47L309.73,320.19L310.27,319.79L311.89,321.4L312.43,321.02L313.51,321.91L314.05,321.89L315.68,322.02L316.22,322.4L317.3,322.85L317.84,322.66L319.46,323.8L320,323.55L321.62,325.21L322.16,323.94L323.78,325.02L324.32,325.12L325.95,325.96L326.49,325.36L327.57,325.8L328.11,325.91L329.19,326.54L329.73,326.54L331.35,327.08L331.89,327.24L332.43,326.6L332.97,328.13L335.68,327.7L336.22,328.45L337.3,328.79L337.84,328.34L338.38,328.12L338.92,328.85L340.54,329.79L341.08,328.9L342.16,329.53L342.7,328.91L344.32,330.61L344.86,330.95L347.03,329.86L347.57,331.07L351.35,331.8L351.89,332.05L353.51,331.79L354.05,332.02L355.14,331.64L355.68,332.55L356.76,332.22L357.3,332.5L358.38,332.5L358.92,332.55L361.62,333.53L362.16,333.4L363.24,332.8L363.78,333.62L364.86,333.29L365.41,333.85L367.57,333.06L368.11,334.42L370.27,334.47L370.81,334.61L371.89,334.17L372.43,334.84L373.51,334.04L374.05,334.84L375.68,334.75L376.22,334.71L378.92,335.52L379.46,335.05L383.78,335.37L384.32,336.55L385.95,335.77L386.49,336.2L388.11,336.1L388.65,336.74L389.73,336.16L390.27,336.36L391.35,336.91L391.89,336.09L393.51,336.89L394.05,336.13L396.22,336.84L396.76,336.4L397.3,337.41L397.84,336.77L398.92,336.69L399.46,337.03L400,337.93L400.54,337L401.62,337.18L402.16,336.92L404.86,337.46L405.41,338.32L405.95,337.48L406.49,337.97L407.03,337.58L408.11,337.94L408.65,337.2L410.27,338.4L410.81,337.61L412.97,338.2L413.51,337.93L414.05,337.65L414.59,338.48L415.68,337.51L416.22,338.14L418.38,337.95L418.92,337.7L421.08,338.28L421.62,338.38L422.7,338.48L423.24,337.81L424.32,338.84L424.86,338.34L425.41,339.14L425.95,338.16L428.11,339.41L428.65,338.73L429.73,338.82L430.27,339.28L430.81,338.3L431.35,339.02L431.89,338.96L432.43,339.79L434.05,339.02L434.59,339.46L435.14,338.5L435.68,339.46L437.84,339.29L438.38,339.39L439.46,339.27L440,338.94L441.62,339.46L442.16,339.09L443.78,339.54L444.32,339.26L446.49,339.23L447.03,338.97L448.65,339.68L449.19,339.8L450.27,339.43L450.81,339.54L451.35,339.83L451.89,338.97L454.05,339.77L454.59,339.25L455.68,340.16L456.22,339.85L457.84,340.01L458.38,339.17L459.46,339.47L460,339.82L461.08,340L461.62,340.07L463.78,340.39L464.32,340.33L465.41,339.91L465.95,340.17L468.65,339.79L469.19,340.54L470.27,339.97L470.81,340.59L471.35,339.3L471.89,340.11L473.51,340.28L474.05,339.68L476.76,340.43L477.3,340.14L478.38,339.88L478.92,339.7L481.62,340.42L482.16,340.24L482.7,339.89L483.24,340.52L485.41,340.26L485.95,340.45L486.49,340.97L487.03,340.17L488.11,340.37L488.65,339.99L490.27,340.48L490.81,340.74L493.51,340.14L494.05,340.99L494.59,339.88L495.14,340.33L495.68,340.74L496.76,340.72L497.3,340.46L501.08,340.5L501.62,340.2L502.7,340.31L503.24,340.03L503.78,340.96L504.32,340.31L505.41,340.76L505.95,339.9L507.57,340.36L508.11,340.32L511.89,340.61L512.43,340.5L513.51,340.71L514.05,340.83L516.22,339.87L516.76,340.5L523.24,340.68L523.78,340.3L525.95,340.81L526.49,339.85L527.57,341.01L528.11,341.14L530.27,340.47L530.81,340.81L532.43,340.78L532.97,340.48L533.51,340.95L534.05,340.06L535.68,341.41L536.22,340.91L536.76,341.61L537.3,340.55L538.92,340.57L539.46,340.85L540,341.24" style="vector-effect: non-scaling-stroke; fill: none; stroke: rgb(99, 110, 250); stroke-opacity: 1; stroke-width: 2px; opacity: 1;"/></g><g class="points"/><g class="text"/></g></g></g><g class="overplot"/><path class="xlines-above crisp" d="M0,0" style="fill: none;"/><path class="ylines-above crisp" d="M0,0" style="fill: none;"/><g class="overlines-above"/><g class="xaxislayer-above"><g class="xtick"><text text-anchor="middle" x="0" y="433" transform="translate(134,0)" style="font-family: 'Open Sans', verdana, arial, sans-serif; font-size: 12px; fill: rgb(42, 63, 95); fill-opacity: 1; white-space: pre; opacity: 1;">−4</text></g><g class="xtick"><text text-anchor="middle" x="0" y="433" style="font-family: 'Open Sans', verdana, arial, sans-serif; font-size: 12px; fill: rgb(42, 63, 95); fill-opacity: 1; white-space: pre; opacity: 1;" transform="translate(242,0)">−2</text></g><g class="xtick"><text text-anchor="middle" x="0" y="433" style="font-family: 'Open Sans', verdana, arial, sans-serif; font-size: 12px; fill: rgb(42, 63, 95); fill-opacity: 1; white-space: pre; opacity: 1;" transform="translate(350,0)">0</text></g><g class="xtick"><text text-anchor="middle" x="0" y="433" style="font-family: 'Open Sans', verdana, arial, sans-serif; font-size: 12px; fill: rgb(42, 63, 95); fill-opacity: 1; white-space: pre; opacity: 1;" transform="translate(458,0)">2</text></g><g class="xtick"><text text-anchor="middle" x="0" y="433" style="font-family: 'Open Sans', verdana, arial, sans-serif; font-size: 12px; fill: rgb(42, 63, 95); fill-opacity: 1; white-space: pre; opacity: 1;" transform="translate(566,0)">4</text></g></g><g class="yaxislayer-above"><g class="ytick"><text text-anchor="end" x="79" y="4.199999999999999" transform="translate(0,368.74)" style="font-family: 'Open Sans', verdana, arial, sans-serif; font-size: 12px; fill: rgb(42, 63, 95); fill-opacity: 1; white-space: pre; opacity: 1;">0.2</text></g><g class="ytick"><text text-anchor="end" x="79" y="4.199999999999999" style="font-family: 'Open Sans', verdana, arial, sans-serif; font-size: 12px; fill: rgb(42, 63, 95); fill-opacity: 1; white-space: pre; opacity: 1;" transform="translate(0,303.99)">0.4</text></g><g class="ytick"><text text-anchor="end" x="79" y="4.199999999999999" style="font-family: 'Open Sans', verdana, arial, sans-serif; font-size: 12px; fill: rgb(42, 63, 95); fill-opacity: 1; white-space: pre; opacity: 1;" transform="translate(0,239.23)">0.6</text></g><g class="ytick"><text text-anchor="end" x="79" y="4.199999999999999" style="font-family: 'Open Sans', verdana, arial, sans-serif; font-size: 12px; fill: rgb(42, 63, 95); fill-opacity: 1; white-space: pre; opacity: 1;" transform="translate(0,174.47)">0.8</text></g><g class="ytick"><text text-anchor="end" x="79" y="4.199999999999999" style="font-family: 'Open Sans', verdana, arial, sans-serif; font-size: 12px; fill: rgb(42, 63, 95); fill-opacity: 1; white-space: pre; opacity: 1;" transform="translate(0,109.71000000000001)">1</text></g></g><g class="overaxes-above"/></g></g><g class="polarlayer"/><g class="smithlayer"/><g class="ternarylayer"/><g class="geolayer"/><g class="funnelarealayer"/><g class="pielayer"/><g class="iciclelayer"/><g class="treemaplayer"/><g class="sunburstlayer"/><g class="glimages"/><defs id="topdefs-310886"><g class="clips"/></defs><g class="layer-above"><g class="imagelayer"/><g class="shapelayer"><path data-index="0" fill-rule="evenodd" d="M241.62,420L241.62,60" clip-path="url(#clip310886x)" style="opacity: 1; stroke: rgb(42, 63, 95); stroke-opacity: 1; fill: rgb(0, 0, 0); fill-opacity: 0; stroke-width: 2px;"/><path data-index="1" fill-rule="evenodd" d="M80,400.94L620,400.94" clip-path="url(#clip310886y)" style="opacity: 1; stroke: rgb(42, 63, 95); stroke-opacity: 1; fill: rgb(0, 0, 0); fill-opacity: 0; stroke-width: 2px;"/></g></g><g class="infolayer"><g class="g-gtitle"/><g class="g-xtitle"><text class="xtitle" x="350" y="460.8" text-anchor="middle" style="font-family: 'Open Sans', verdana, arial, sans-serif; font-size: 14px; fill: rgb(42, 63, 95); opacity: 1; font-weight: normal; white-space: pre;">x</text></g><g class="g-ytitle"><text class="ytitle" transform="rotate(-90,35.10625,240)" x="35.10625" y="240" text-anchor="middle" style="font-family: 'Open Sans', verdana, arial, sans-serif; font-size: 14px; fill: rgb(42, 63, 95); opacity: 1; font-weight: normal; white-space: pre;">y</text></g></g></svg>
