<svg class="main-svg" xmlns="http://www.w3.org/2000/svg" xmlns:xlink="http://www.w3.org/1999/xlink" width="700" height="500" style="" viewBox="0 0 700 500"><rect x="0" y="0" width="700" height="500" style="fill: rgb(255, 255, 255); fill-opacity: 1;"/><defs id="defs-6646e9"><g class="clips"><clipPath id="clip6646e9xyplot" class="plotclip"><rect width="500" height="360"/></clipPath><clipPath class="axesclip" id="clip6646e9x"><rect x="80" y="0" width="500" height="500"/></clipPath><clipPath class="axesclip" id="clip6646e9y"><rect x="0" y="60" width="700" height="360"/></clipPath><clipPath class="axesclip" id="clip6646e9xy"><rect x="80" y="60" width="500" height="360"/></clipPath></g><g class="gradients"/><g class="patterns"/></defs><g class="bglayer"><rect class="bg" x="80" y="60" width="500" height="360" style="fill: rgb(229, 236, 246); fill-opacity: 1; stroke-width: 0;"/></g><g class="layer-below"><g class="imagelayer"/><g class="shapelayer"/></g><g class="cartesianlayer"><g class="subplot xy"><g class="layer-subplot"><g class="shapelayer"/><g class="imagelayer"/></g><g class="minor-gridlayer"><g class="x"/><g class="y"/></g><g class="gridlayer"><g class="x"><path class="xgrid crisp" transform="translate(219.16,0)" d="M0,60v360" style="stroke: rgb(255, 255, 255); stroke-opacity: 1; stroke-width: 1px;"/><path class="xgrid crisp" transform="translate(319.93,0)" d="M0,60v360" style="stroke: rgb(255, 255, 255); stroke-opacity: 1; stroke-width: 1px;"/><path class="xgrid crisp" transform="translate(420.7,0)" d="M0,60v360" style="stroke: rgb(255, 255, 255); stroke-opacity: 1; stroke-width: 1px;"/><path class="xgrid crisp" transform="translate(521.47,0)" d="M0,60v360" style="stroke: rgb(255, 255, 255); stroke-opacity: 1; stroke-width: 1px;"/></g><g class="y"><path class="ygrid crisp" transform="translate(0,324.34)" d="M80,0h500" style="stroke: rgb(255, 255, 255); stroke-opacity: 1; stroke-width: 1px;"/><path class="ygrid crisp" transform="translate(0,276.69)" d="M80,0h500" style="stroke: rgb(255, 255, 255); stroke-opacity: 1; stroke-width: 1px;"/><path class="ygrid crisp" transform="translate(0,229.04)" d="M80,0h500" style="stroke: rgb(255, 255, 255); stroke-opacity: 1; stroke-width: 1px;"/><path class="ygrid crisp" transform="translate(0,181.39)" d="M80,0h500" style="stroke: rgb(255, 255, 255); stroke-opacity: 1; stroke-width: 1px;"/><path class="ygrid crisp" transform="translate(0,133.75)" d="M80,0h500" style="stroke: rgb(255, 255, 255); stroke-opacity: 1; stroke-width: 1px;"/><path class="ygrid crisp" transform="translate(0,86.1)" d="M80,0h500" style="stroke: rgb(255, 255, 255); stroke-opacity: 1; stroke-width: 1px;"/></g></g><g class="zerolinelayer"><path class="xzl zl crisp" transform="translate(118.39,0)" d="M0,60v360" style="stroke: rgb(255, 255, 255); stroke-opacity: 1; stroke-width: 2px;"/><path class="yzl zl crisp" transform="translate(0,371.98)" d="M80,0h500" style="stroke: rgb(255, 255, 255); stroke-opacity: 1; stroke-width: 2px;"/></g><path class="xlines-below"/><path class="ylines-below"/><g class="overlines-below"/><g class="xaxislayer-below"/><g class="yaxislayer-below"/><g class="overaxes-below"/><g class="plot" transform="translate(80,60)" clip-path="url(#clip6646e9xyplot)"><g class="scatterlayer mlayer"><g class="trace scatter trace63004a" style="stroke-miterlimit: 2; opacity: 1;"><g class="fills"/><g class="errorbars"/><g class="lines"><path class="js-line" d="M0,342L1.07,331.99L2.13,308.65L3.2,309.6L4.27,302.45L6.4,317.7L7.46,313.41L8.53,311.51L9.6,311.98L10.66,297.69L11.73,314.36L13.86,306.74L14.93,309.12L16,305.79L17.06,309.12L18.13,310.55L19.19,313.89L20.26,312.94L21.33,310.55L22.39,312.94L23.46,305.79L24.53,312.46L25.59,302.93L28.79,316.75L29.86,308.17L30.92,299.59L31.99,303.88L33.06,308.65L34.12,305.79L35.19,305.79L36.25,316.75L37.32,308.65L38.39,311.98L39.45,296.74L40.52,297.69L42.65,274.34L43.72,236.7L45.85,173.33L46.91,142.36L47.98,82.32L49.04,76.13L50.11,36.58L51.17,26.58L52.24,18L53.3,51.35L54.37,31.34L55.43,56.12L56.5,53.74L57.56,68.51L58.63,86.61L59.69,82.8L60.76,91.85L61.82,110.91L62.89,127.11L63.95,118.06L66.08,127.59L67.15,116.15L69.27,151.89L70.34,141.41L71.4,167.14L72.47,164.75L73.53,145.22L74.59,158.08L75.66,160.46L76.72,166.66L77.78,178.09L78.85,173.33L79.91,181.43L80.97,171.9L82.04,193.34L83.1,185.72L84.16,188.1L85.23,197.15L86.29,190.48L87.35,193.34L88.41,178.09L89.48,205.25L90.54,190.01L91.6,213.35L92.66,198.11L93.73,193.82L94.79,202.87L95.85,196.68L96.91,199.54L97.97,212.4L99.03,222.41L100.09,213.35L101.16,209.06L102.22,214.78L103.28,226.69L104.34,215.74L105.4,195.25L106.46,216.69L107.52,214.78L108.58,216.69L109.64,219.55L110.7,224.79L112.82,228.6L113.88,226.69L114.94,226.22L116,230.51L117.06,236.22L118.12,228.6L119.18,242.42L120.24,230.03L121.3,228.6L122.35,233.84L123.41,236.7L124.47,232.41L125.53,244.32L126.59,233.84L127.65,239.56L128.7,234.32L130.82,247.66L131.88,243.37L132.93,233.84L133.99,236.22L135.05,247.66L136.11,231.46L138.22,243.37L139.28,240.04L140.33,240.51L141.39,248.61L142.44,248.61L143.5,251.47L145.61,261L146.67,259.09L147.72,244.8L148.78,259.09L149.83,255.76L150.89,255.76L151.94,252.42L153,254.81L154.05,245.28L155.11,250.04L156.16,254.33L157.21,249.09L158.27,248.14L159.32,268.15L160.38,251.95L161.43,251.47L162.48,265.29L163.54,261L164.59,256.24L165.64,266.72L166.69,254.33L167.75,260.05L168.8,261.95L169.85,266.24L171.95,250.04L173.01,256.24L176.16,271.01L177.21,259.57L179.31,278.63L180.36,261L181.41,268.62L182.46,263.86L183.51,258.62L184.56,261.48L185.61,261L186.66,263.38L188.76,270.53L189.81,271.01L191.91,262.43L192.96,279.58L194.01,267.67L195.06,277.2L196.1,276.25L197.15,271.48L198.2,280.06L199.25,257.66L200.29,271.01L201.34,269.58L203.44,277.68L204.48,279.58L206.58,261L207.62,271.96L209.71,285.3L210.76,278.63L211.81,271.48L212.85,273.39L213.9,275.29L214.94,267.67L215.99,267.19L217.03,272.91L218.08,281.96L219.12,273.86L221.21,276.72L222.26,280.54L223.3,280.54L224.34,272.91L225.39,269.58L226.43,274.82L227.47,272.44L228.52,272.44L229.56,281.01L230.6,281.49L231.65,282.92L232.69,279.11L233.73,281.49L234.77,275.77L236.86,277.68L237.9,280.54L238.94,267.19L239.98,275.77L241.02,275.77L242.06,285.78L243.1,279.11L244.15,286.73L245.19,281.96L246.23,291.02L247.27,285.78L248.31,285.3L249.35,277.68L250.39,281.49L251.43,283.87L252.47,276.72L253.51,289.59L254.54,289.59L255.58,283.39L256.62,287.68L258.7,280.54L259.74,283.39L260.78,281.49L261.82,289.59L262.85,289.11L263.89,297.69L264.93,295.31L265.97,289.11L267,290.54L268.04,296.26L269.08,280.54L270.12,293.4L271.15,297.21L272.19,280.54L273.23,290.06L274.26,280.06L275.3,282.44L276.34,297.69L278.41,278.15L279.44,294.35L281.51,286.73L282.55,288.16L283.59,286.73L284.62,291.49L285.66,289.11L286.69,292.45L287.73,288.16L288.76,288.16L289.79,284.82L290.83,288.64L291.86,288.16L292.9,290.54L293.93,281.96L294.96,298.64L297.03,283.39L298.07,289.11L299.1,287.68L300.13,288.64L301.17,289.59L302.2,287.21L303.23,301.02L304.26,296.74L305.3,290.54L306.33,295.78L307.36,287.68L308.39,296.74L309.43,291.97L310.46,299.59L312.52,287.68L313.55,296.74L314.59,285.3L315.62,295.78L316.65,294.83L317.68,298.64L319.74,287.68L320.77,293.88L321.8,298.64L322.83,293.4L323.87,293.88L324.9,299.12L325.93,289.11L326.96,295.78L327.99,298.64L329.02,287.68L330.05,299.12L331.08,289.11L333.14,296.26L334.17,293.4L335.2,297.21L336.23,294.83L337.26,289.59L338.29,295.78L339.32,302.45L340.34,289.59L341.37,288.64L342.4,293.4L343.43,295.31L344.46,299.59L346.52,299.59L347.55,301.5L348.58,301.02L349.61,297.21L350.63,311.98L351.66,293.88L352.69,300.55L353.72,300.55L354.75,293.4L355.78,298.16L356.8,303.41L357.83,312.94L359.89,296.26L360.92,297.69L361.94,294.83L362.97,301.98L364,301.98L365.03,302.93L366.06,293.88L367.08,304.84L368.11,295.31L369.14,299.12L370.17,296.74L371.19,306.26L372.22,303.41L373.25,290.06L374.28,302.93L375.31,297.69L376.33,299.59L377.36,312.46L379.41,292.45L380.44,299.12L383.52,301.98L384.55,306.26L385.58,300.55L386.61,302.45L387.63,311.98L388.66,297.69L391.74,307.69L392.77,294.83L393.8,302.45L394.82,296.74L395.85,301.98L396.88,298.16L397.91,299.59L398.93,294.83L399.96,308.65L400.99,308.65L402.02,294.83L403.04,296.74L404.07,306.74L405.1,298.16L406.12,304.84L407.15,292.45L408.18,297.21L409.21,293.4L410.23,302.93L411.26,300.07L412.29,308.65L413.32,300.55L414.35,297.21L415.37,308.65L417.43,296.26L418.46,307.22L419.48,300.07L420.51,307.22L421.54,311.51L422.57,308.65L423.6,301.5L424.62,302.93L425.65,300.07L426.68,306.74L427.71,298.64L428.74,301.02L429.77,298.64L430.8,308.65L432.85,305.79L433.88,296.74L434.91,305.31L435.94,296.74L436.97,301.5L438,298.64L440.06,302.45L441.09,301.98L442.12,299.59L443.15,301.98L444.17,304.36L445.2,303.88L446.23,300.55L447.26,306.26L448.3,299.12L449.33,312.46L451.39,291.97L452.42,304.84L453.45,297.69L454.48,301.98L455.51,312.46L456.54,305.79L457.57,310.08L458.6,306.74L459.64,303.41L460.67,309.6L461.7,304.36L462.73,306.26L463.76,309.6L464.8,308.65L465.83,310.55L466.86,305.31L467.89,293.88L468.93,299.12L469.96,314.84L470.99,301.5L473.06,308.17L474.09,308.65L475.13,311.51L476.16,308.65L478.23,305.79L479.26,302.93L481.33,305.31L482.37,301.02L484.44,307.22L485.48,307.22L486.51,301.98L487.55,311.03L489.62,302.93L490.66,305.31L491.7,310.08L492.73,305.79L493.77,304.84L494.81,301.5L495.85,309.6L496.88,306.26L497.92,318.65L498.96,342L500,342" style="vector-effect: non-scaling-stroke; fill: none; stroke: rgb(99, 110, 250); stroke-opacity: 1; stroke-width: 2px; opacity: 1;"/></g><g class="points"/><g class="text"/></g><g class="trace scatter traceed2820" style="stroke-miterlimit: 2; opacity: 1;"><g class="fills"/><g class="errorbars"/><g class="lines"><path class="js-line" d="M54.37,41.91L59.69,87.15L60.76,94.68L66.08,126.41L67.15,131.74L72.47,154.39L73.53,158.23L79.91,177.55L80.97,180.25L87.35,194.07L88.41,196.04L95.85,207.81L96.91,209.25L105.4,219.23L106.46,220.31L116,228.92L117.06,229.77L129.76,238.79L130.82,239.47L146.67,248.53L147.72,249.07L167.75,258.44L168.8,258.88L188.76,266.64L189.81,267.01L213.9,274.77L214.94,275.07L243.1,282.39L244.15,282.63L274.26,288.81L275.3,288.99L293.93,292.12" style="vector-effect: non-scaling-stroke; fill: none; stroke: rgb(239, 85, 59); stroke-opacity: 1; stroke-width: 2px; opacity: 1;"/></g><g class="points"/><g class="text"/></g></g></g><g class="overplot"/><path class="xlines-above crisp" d="M0,0" style="fill: none;"/><path class="ylines-above crisp" d="M0,0" style="fill: none;"/><g class="overlines-above"/><g class="xaxislayer-above"><g class="xtick"><text text-anchor="middle" x="0" y="433" transform="translate(118.39,0)" style="font-family: 'Open Sans', verdana, arial, sans-serif; font-size: 12px; fill: rgb(42, 63, 95); fill-opacity: 1; white-space: pre; opacity: 1;">0</text></g><g class="xtick"><text text-anchor="middle" x="0" y="433" style="font-family: 'Open Sans', verdana, arial, sans-serif; font-size: 12px; fill: rgb(42, 63, 95); fill-opacity: 1; white-space: pre; opacity: 1;" transform="translate(219.16,0)">2</text></g><g class="xtick"><text text-anchor="middle" x="0" y="433" style="font-family: 'Open Sans', verdana, arial, sans-serif; font-size: 12px; fill: rgb(42, 63, 95); fill-opacity: 1; white-space: pre; opacity: 1;" transform="translate(319.93,0)">4</text></g><g class="xtick"><text text-anchor="middle" x="0" y="433" style="font-family: 'Open Sans', verdana, arial, sans-serif; font-size: 12px; fill: rgb(42, 63, 95); fill-opacity: 1; white-space: pre; opacity: 1;" transform="translate(420.7,0)">6</text></g><g class="xtick"><text text-anchor="middle" x="0" y="433" style="font-family: 'Open Sans', verdana, arial, sans-serif; font-size: 12px; fill: rgb(42, 63, 95); fill-opacity: 1; white-space: pre; opacity: 1;" transform="translate(521.47,0)">8</text></g></g><g class="yaxislayer-above"><g class="ytick"><text text-anchor="end" x="79" y="4.199999999999999" transform="translate(0,419.63)" style="font-family: 'Open Sans', verdana, arial, sans-serif; font-size: 12px; fill: rgb(42, 63, 95); fill-opacity: 1; white-space: pre; opacity: 1;">−100</text></g><g class="ytick"><text text-anchor="end" x="79" y="4.199999999999999" style="font-family: 'Open Sans', verdana, arial, sans-serif; font-size: 12px; fill: rgb(42, 63, 95); fill-opacity: 1; white-space: pre; opacity: 1;" transform="translate(0,371.98)">0</text></g><g class="ytick"><text text-anchor="end" x="79" y="4.199999999999999" style="font-family: 'Open Sans', verdana, arial, sans-serif; font-size: 12px; fill: rgb(42, 63, 95); fill-opacity: 1; white-space: pre; opacity: 1;" transform="translate(0,324.34)">100</text></g><g class="ytick"><text text-anchor="end" x="79" y="4.199999999999999" style="font-family: 'Open Sans', verdana, arial, sans-serif; font-size: 12px; fill: rgb(42, 63, 95); fill-opacity: 1; white-space: pre; opacity: 1;" transform="translate(0,276.69)">200</text></g><g class="ytick"><text text-anchor="end" x="79" y="4.199999999999999" style="font-family: 'Open Sans', verdana, arial, sans-serif; font-size: 12px; fill: rgb(42, 63, 95); fill-opacity: 1; white-space: pre; opacity: 1;" transform="translate(0,229.04)">300</text></g><g class="ytick"><text text-anchor="end" x="79" y="4.199999999999999" style="font-family: 'Open Sans', verdana, arial, sans-serif; font-size: 12px; fill: rgb(42, 63, 95); fill-opacity: 1; white-space: pre; opacity: 1;" transform="translate(0,181.39)">400</text></g><g class="ytick"><text text-anchor="end" x="79" y="4.199999999999999" style="font-family: 'Open Sans', verdana, arial, sans-serif; font-size: 12px; fill: rgb(42, 63, 95); fill-opacity: 1; white-space: pre; opacity: 1;" transform="translate(0,133.75)">500</text></g><g class="ytick"><text text-anchor="end" x="79" y="4.199999999999999" style="font-family: 'Open Sans', verdana, arial, sans-serif; font-size: 12px; fill: rgb(42, 63, 95); fill-opacity: 1; white-space: pre; opacity: 1;" transform="translate(0,86.1)">600</text></g></g><g class="overaxes-above"/></g></g><g class="polarlayer"/><g class="smithlayer"/><g class="ternarylayer"/><g class="geolayer"/><g class="funnelarealayer"/><g class="pielayer"/><g class="iciclelayer"/><g class="treemaplayer"/><g class="sunburstlayer"/><g class="glimages"/><defs id="topdefs-6646e9"><g class="clips"/><clipPath id="legend6646e9"><rect width="98" height="67" x="0" y="0"/></clipPath></defs><g class="layer-above"><g class="imagelayer"/><g class="shapelayer"/></g><g class="infolayer"><g class="legend" pointer-events="all" transform="translate(590,60)"><rect class="bg" shape-rendering="crispEdges" style="stroke: rgb(68, 68, 68); stroke-opacity: 1; fill: rgb(255, 255, 255); fill-opacity: 1; stroke-width: 0px;" width="98" height="67" x="0" y="0"/><g class="scrollbox" transform="" clip-path="url(#legend6646e9)"><text class="legendtitletext" text-anchor="start" x="2" y="18.2" style="font-family: 'Open Sans', verdana, arial, sans-serif; font-size: 14px; fill: rgb(42, 63, 95); fill-opacity: 1; white-space: pre;">variable</text><g class="groups" transform=""><g class="traces" transform="translate(0,32.7)" style="opacity: 1;"><text class="legendtext" text-anchor="start" x="40" y="4.680000000000001" style="font-family: 'Open Sans', verdana, arial, sans-serif; font-size: 12px; fill: rgb(42, 63, 95); fill-opacity: 1; white-space: pre;">intensity</text><g class="layers" style="opacity: 1;"><g class="legendfill"/><g class="legendlines"><path class="js-line" d="M5,0h30" style="fill: none; stroke: rgb(99, 110, 250); stroke-opacity: 1; stroke-width: 2px;"/></g><g class="legendsymbols"><g class="legendpoints"/></g></g><rect class="legendtoggle" x="0" y="-9.5" width="92.03125" height="19" style="fill: rgb(0, 0, 0); fill-opacity: 0;"/></g></g><g class="groups" transform=""><g class="traces" transform="translate(0,51.7)" style="opacity: 1;"><text class="legendtext" text-anchor="start" x="40" y="4.680000000000001" style="font-family: 'Open Sans', verdana, arial, sans-serif; font-size: 12px; fill: rgb(42, 63, 95); fill-opacity: 1; white-space: pre;">fit</text><g class="layers" style="opacity: 1;"><g class="legendfill"/><g class="legendlines"><path class="js-line" d="M5,0h30" style="fill: none; stroke: rgb(239, 85, 59); stroke-opacity: 1; stroke-width: 2px;"/></g><g class="legendsymbols"><g class="legendpoints"/></g></g><rect class="legendtoggle" x="0" y="-9.5" width="92.03125" height="19" style="fill: rgb(0, 0, 0); fill-opacity: 0;"/></g></g></g><rect class="scrollbar" rx="20" ry="3" width="0" height="0" style="fill: rgb(128, 139, 164); fill-opacity: 1;" x="0" y="0"/></g><g class="g-gtitle"/><g class="g-xtitle"><text class="xtitle" x="330" y="460.8" text-anchor="middle" style="font-family: 'Open Sans', verdana, arial, sans-serif; font-size: 14px; fill: rgb(42, 63, 95); opacity: 1; font-weight: normal; white-space: pre;">time</text></g><g class="g-ytitle"><text class="ytitle" transform="rotate(-90,21.231250000000003,240)" x="21.231250000000003" y="240" text-anchor="middle" style="font-family: 'Open Sans', verdana, arial, sans-serif; font-size: 14px; fill: rgb(42, 63, 95); opacity: 1; font-weight: normal; white-space: pre;">value</text></g></g></svg>
