<svg class="main-svg" xmlns="http://www.w3.org/2000/svg" xmlns:xlink="http://www.w3.org/1999/xlink" width="700" height="500" style="" viewBox="0 0 700 500"><rect x="0" y="0" width="700" height="500" style="fill: rgb(255, 255, 255); fill-opacity: 1;"/><defs id="defs-5c5d31"><g class="clips"><clipPath id="clip5c5d31xyplot" class="plotclip"><rect width="540" height="360"/></clipPath><clipPath class="axesclip" id="clip5c5d31x"><rect x="80" y="0" width="540" height="500"/></clipPath><clipPath class="axesclip" id="clip5c5d31y"><rect x="0" y="60" width="700" height="360"/></clipPath><clipPath class="axesclip" id="clip5c5d31xy"><rect x="80" y="60" width="540" height="360"/></clipPath></g><g class="gradients"/><g class="patterns"/></defs><g class="bglayer"><rect class="bg" x="80" y="60" width="540" height="360" style="fill: rgb(229, 236, 246); fill-opacity: 1; stroke-width: 0;"/></g><g class="layer-below"><g class="imagelayer"/><g class="shapelayer"/></g><g class="cartesianlayer"><g class="subplot xy"><g class="layer-subplot"><g class="shapelayer"/><g class="imagelayer"/></g><g class="minor-gridlayer"><g class="x"/><g class="y"/></g><g class="gridlayer"><g class="x"><path class="xgrid crisp" transform="translate(230.29,0)" d="M0,60v360" style="stroke: rgb(255, 255, 255); stroke-opacity: 1; stroke-width: 1px;"/><path class="xgrid crisp" transform="translate(339.12,0)" d="M0,60v360" style="stroke: rgb(255, 255, 255); stroke-opacity: 1; stroke-width: 1px;"/><path class="xgrid crisp" transform="translate(447.95,0)" d="M0,60v360" style="stroke: rgb(255, 255, 255); stroke-opacity: 1; stroke-width: 1px;"/><path class="xgrid crisp" transform="translate(556.79,0)" d="M0,60v360" style="stroke: rgb(255, 255, 255); stroke-opacity: 1; stroke-width: 1px;"/></g><g class="y"><path class="ygrid crisp" transform="translate(0,324.34)" d="M80,0h540" style="stroke: rgb(255, 255, 255); stroke-opacity: 1; stroke-width: 1px;"/><path class="ygrid crisp" transform="translate(0,276.69)" d="M80,0h540" style="stroke: rgb(255, 255, 255); stroke-opacity: 1; stroke-width: 1px;"/><path class="ygrid crisp" transform="translate(0,229.04)" d="M80,0h540" style="stroke: rgb(255, 255, 255); stroke-opacity: 1; stroke-width: 1px;"/><path class="ygrid crisp" transform="translate(0,181.39)" d="M80,0h540" style="stroke: rgb(255, 255, 255); stroke-opacity: 1; stroke-width: 1px;"/><path class="ygrid crisp" transform="translate(0,133.75)" d="M80,0h540" style="stroke: rgb(255, 255, 255); stroke-opacity: 1; stroke-width: 1px;"/><path class="ygrid crisp" transform="translate(0,86.1)" d="M80,0h540" style="stroke: rgb(255, 255, 255); stroke-opacity: 1; stroke-width: 1px;"/></g></g><g class="zerolinelayer"><path class="xzl zl crisp" transform="translate(121.46000000000001,0)" d="M0,60v360" style="stroke: rgb(255, 255, 255); stroke-opacity: 1; stroke-width: 2px;"/><path class="yzl zl crisp" transform="translate(0,371.98)" d="M80,0h540" style="stroke: rgb(255, 255, 255); stroke-opacity: 1; stroke-width: 2px;"/></g><path class="xlines-below"/><path class="ylines-below"/><g class="overlines-below"/><g class="xaxislayer-below"/><g class="yaxislayer-below"/><g class="overaxes-below"/><g class="plot" transform="translate(80,60)" clip-path="url(#clip5c5d31xyplot)"><g class="scatterlayer mlayer"><g class="trace scatter trace8841d8" style="stroke-miterlimit: 2; opacity: 1;"><g class="fills"/><g class="errorbars"/><g class="lines"><path class="js-line" d="M0,342L1.15,331.99L2.3,308.65L3.45,309.6L4.61,302.45L6.91,317.7L8.06,313.41L9.21,311.51L10.37,311.98L11.52,297.69L12.67,314.36L14.97,306.74L16.12,309.12L17.28,305.79L18.43,309.12L19.58,310.55L20.73,313.89L21.88,312.94L23.03,310.55L24.19,312.94L25.34,305.79L26.49,312.46L27.64,302.93L31.1,316.75L32.25,308.17L33.4,299.59L34.55,303.88L35.7,308.65L36.85,305.79L38,305.79L39.15,316.75L40.31,308.65L41.46,311.98L42.61,296.74L43.76,297.69L46.06,274.34L47.21,236.7L49.51,173.33L50.67,142.36L51.82,82.32L52.97,76.13L54.12,36.58L55.27,26.58L56.42,18L57.57,51.35L58.72,31.34L59.87,56.12L61.02,53.74L62.17,68.51L63.32,86.61L64.47,82.8L65.62,91.85L66.77,110.91L67.92,127.11L69.07,118.06L71.37,127.59L72.52,116.15L74.82,151.89L75.97,141.41L77.11,167.14L78.26,164.75L79.41,145.22L80.56,158.08L81.71,160.46L82.86,166.66L84.01,178.09L85.16,173.33L86.3,181.43L87.45,171.9L88.6,193.34L89.75,185.72L90.9,188.1L92.04,197.15L93.19,190.48L94.34,193.34L95.49,178.09L96.63,205.25L97.78,190.01L98.93,213.35L100.08,198.11L101.22,193.82L102.37,202.87L103.52,196.68L104.66,199.54L105.81,212.4L106.96,222.41L108.1,213.35L109.25,209.06L110.39,214.78L111.54,226.69L112.69,215.74L113.83,195.25L114.98,216.69L116.12,214.78L117.27,216.69L118.41,219.55L119.56,224.79L121.85,228.6L122.99,226.69L124.14,226.22L125.28,230.51L126.42,236.22L127.57,228.6L128.71,242.42L129.86,230.03L131,228.6L132.14,233.84L133.29,236.7L134.43,232.41L135.57,244.32L136.72,233.84L137.86,239.56L139,234.32L141.29,247.66L142.43,243.37L143.57,233.84L144.71,236.22L145.85,247.66L146.99,231.46L149.28,243.37L150.42,240.04L151.56,240.51L152.7,248.61L153.84,248.61L154.98,251.47L156.12,258.62L157.26,261L158.4,259.09L159.54,244.8L160.68,259.09L161.82,255.76L162.96,255.76L164.1,252.42L165.24,254.81L166.38,245.28L168.65,254.33L169.79,249.09L170.93,248.14L172.07,268.15L173.21,251.95L174.34,251.47L175.48,265.29L176.62,261L177.76,256.24L178.89,266.72L180.03,254.33L181.17,260.05L182.3,261.95L183.44,266.24L185.71,250.04L186.85,256.24L190.25,271.01L191.39,259.57L193.66,278.63L194.79,261L195.93,268.62L197.06,263.86L198.2,258.62L199.33,261.48L200.46,261L201.6,263.38L203.86,270.53L205,271.01L207.26,262.43L208.4,279.58L209.53,267.67L210.66,277.2L211.79,276.25L212.92,271.48L214.06,280.06L215.19,257.66L216.32,271.01L217.45,269.58L219.71,277.68L220.84,279.58L223.1,261L224.23,271.96L226.49,285.3L227.62,278.63L228.75,271.48L229.88,273.39L231.01,275.29L232.14,267.67L233.27,267.19L234.4,272.91L235.52,281.96L236.65,273.86L238.91,276.72L240.04,280.54L241.16,280.54L242.29,272.91L243.42,269.58L244.54,274.82L245.67,272.44L246.8,272.44L247.92,281.01L249.05,281.49L250.18,282.92L251.3,279.11L252.43,281.49L253.55,275.77L255.8,277.68L256.93,280.54L258.05,267.19L259.18,275.77L260.3,275.77L261.43,285.78L262.55,279.11L263.68,286.73L264.8,281.96L265.92,291.02L267.05,285.78L268.17,285.3L269.29,277.68L270.42,281.49L271.54,283.87L272.66,276.72L273.79,289.59L274.91,289.59L276.03,283.39L277.15,287.68L279.4,280.54L280.52,283.39L281.64,281.49L282.76,289.59L283.88,289.11L285,297.69L286.12,295.31L287.24,289.11L288.36,290.54L289.49,296.26L290.61,280.54L291.73,293.4L292.85,297.21L293.97,280.54L295.08,290.06L296.2,280.06L297.32,282.44L298.44,297.69L300.68,278.15L301.8,294.35L304.04,286.73L305.15,288.16L306.27,286.73L307.39,291.49L308.51,289.11L309.63,292.45L310.74,288.16L311.86,288.16L312.98,284.82L314.1,288.64L315.21,288.16L316.33,290.54L317.45,281.96L318.56,298.64L320.79,283.39L321.91,289.11L323.03,287.68L324.14,288.64L325.26,289.59L326.37,287.21L327.49,301.02L328.61,296.74L329.72,290.54L330.84,295.78L331.95,287.68L333.07,296.74L334.18,291.97L335.29,299.59L337.52,287.68L338.64,296.74L339.75,285.3L340.87,295.78L341.98,294.83L343.09,298.64L345.32,287.68L346.43,293.88L347.55,298.64L348.66,293.4L349.77,293.88L350.89,299.12L352,289.11L353.11,295.78L354.23,298.64L355.34,287.68L356.45,299.12L357.56,289.11L359.79,296.26L360.9,293.4L362.01,297.21L363.13,294.83L364.24,289.59L365.35,295.78L366.46,302.45L367.57,289.59L368.68,288.64L369.8,293.4L370.91,295.31L372.02,299.59L374.24,299.59L375.35,301.5L376.46,301.02L377.57,297.21L378.68,311.98L379.8,293.88L380.91,300.55L382.02,300.55L383.13,293.4L384.24,298.16L385.35,303.41L386.46,312.94L388.68,296.26L389.79,297.69L390.9,294.83L392.01,301.98L393.12,301.98L394.23,302.93L395.34,293.88L396.45,304.84L397.56,295.31L398.67,299.12L399.78,296.74L400.89,306.26L402,303.41L403.11,290.06L404.22,302.93L405.33,297.69L406.44,299.59L407.55,312.46L409.77,292.45L410.88,299.12L414.21,301.98L415.32,306.26L416.43,300.55L417.53,302.45L418.64,311.98L419.75,297.69L423.08,307.69L424.19,294.83L425.3,302.45L426.41,296.74L427.52,301.98L428.63,298.16L429.74,299.59L430.85,294.83L431.96,308.65L433.07,308.65L434.18,294.83L435.29,296.74L436.4,306.74L437.51,298.16L438.61,304.84L439.72,292.45L440.83,297.21L441.94,293.4L443.05,302.93L444.16,300.07L445.27,308.65L446.38,300.55L447.49,297.21L448.6,308.65L450.82,296.26L451.93,307.22L453.04,300.07L454.15,307.22L455.26,311.51L456.37,308.65L457.48,301.5L458.59,302.93L459.71,300.07L460.82,306.74L461.93,298.64L463.04,301.02L464.15,298.64L465.26,308.65L467.48,305.79L468.59,296.74L469.7,305.31L470.81,296.74L471.93,301.5L473.04,298.64L475.26,302.45L476.37,301.98L477.48,299.59L478.6,301.98L479.71,304.36L480.82,303.88L481.93,300.55L483.05,306.26L484.16,299.12L485.27,312.46L487.5,291.97L488.61,304.84L489.72,297.69L490.84,301.98L491.95,312.46L493.06,305.79L494.18,310.08L495.29,306.74L496.41,303.41L497.52,309.6L498.63,304.36L499.75,306.26L500.86,309.6L501.98,308.65L503.09,310.55L504.21,305.31L505.32,293.88L506.44,299.12L507.56,314.84L508.67,301.5L510.9,308.17L512.02,308.65L513.14,311.51L514.25,308.65L516.49,305.79L517.61,302.93L519.84,305.31L520.96,301.02L523.2,307.22L524.31,307.22L525.43,301.98L526.55,311.03L528.79,302.93L529.91,305.31L531.03,310.08L532.15,305.79L533.27,304.84L534.39,301.5L535.51,309.6L536.63,306.26L537.76,318.65L538.88,342L540,342" style="vector-effect: non-scaling-stroke; fill: none; stroke: rgb(99, 110, 250); stroke-opacity: 1; stroke-width: 2px; opacity: 1;"/></g><g class="points"/><g class="text"/></g></g></g><g class="overplot"/><path class="xlines-above crisp" d="M0,0" style="fill: none;"/><path class="ylines-above crisp" d="M0,0" style="fill: none;"/><g class="overlines-above"/><g class="xaxislayer-above"><g class="xtick"><text text-anchor="middle" x="0" y="433" transform="translate(121.46000000000001,0)" style="font-family: 'Open Sans', verdana, arial, sans-serif; font-size: 12px; fill: rgb(42, 63, 95); fill-opacity: 1; white-space: pre; opacity: 1;">0</text></g><g class="xtick"><text text-anchor="middle" x="0" y="433" style="font-family: 'Open Sans', verdana, arial, sans-serif; font-size: 12px; fill: rgb(42, 63, 95); fill-opacity: 1; white-space: pre; opacity: 1;" transform="translate(230.29,0)">2</text></g><g class="xtick"><text text-anchor="middle" x="0" y="433" style="font-family: 'Open Sans', verdana, arial, sans-serif; font-size: 12px; fill: rgb(42, 63, 95); fill-opacity: 1; white-space: pre; opacity: 1;" transform="translate(339.12,0)">4</text></g><g class="xtick"><text text-anchor="middle" x="0" y="433" style="font-family: 'Open Sans', verdana, arial, sans-serif; font-size: 12px; fill: rgb(42, 63, 95); fill-opacity: 1; white-space: pre; opacity: 1;" transform="translate(447.95,0)">6</text></g><g class="xtick"><text text-anchor="middle" x="0" y="433" style="font-family: 'Open Sans', verdana, arial, sans-serif; font-size: 12px; fill: rgb(42, 63, 95); fill-opacity: 1; white-space: pre; opacity: 1;" transform="translate(556.79,0)">8</text></g></g><g class="yaxislayer-above"><g class="ytick"><text text-anchor="end" x="79" y="4.199999999999999" transform="translate(0,419.63)" style="font-family: 'Open Sans', verdana, arial, sans-serif; font-size: 12px; fill: rgb(42, 63, 95); fill-opacity: 1; white-space: pre; opacity: 1;">−100</text></g><g class="ytick"><text text-anchor="end" x="79" y="4.199999999999999" style="font-family: 'Open Sans', verdana, arial, sans-serif; font-size: 12px; fill: rgb(42, 63, 95); fill-opacity: 1; white-space: pre; opacity: 1;" transform="translate(0,371.98)">0</text></g><g class="ytick"><text text-anchor="end" x="79" y="4.199999999999999" style="font-family: 'Open Sans', verdana, arial, sans-serif; font-size: 12px; fill: rgb(42, 63, 95); fill-opacity: 1; white-space: pre; opacity: 1;" transform="translate(0,324.34)">100</text></g><g class="ytick"><text text-anchor="end" x="79" y="4.199999999999999" style="font-family: 'Open Sans', verdana, arial, sans-serif; font-size: 12px; fill: rgb(42, 63, 95); fill-opacity: 1; white-space: pre; opacity: 1;" transform="translate(0,276.69)">200</text></g><g class="ytick"><text text-anchor="end" x="79" y="4.199999999999999" style="font-family: 'Open Sans', verdana, arial, sans-serif; font-size: 12px; fill: rgb(42, 63, 95); fill-opacity: 1; white-space: pre; opacity: 1;" transform="translate(0,229.04)">300</text></g><g class="ytick"><text text-anchor="end" x="79" y="4.199999999999999" style="font-family: 'Open Sans', verdana, arial, sans-serif; font-size: 12px; fill: rgb(42, 63, 95); fill-opacity: 1; white-space: pre; opacity: 1;" transform="translate(0,181.39)">400</text></g><g class="ytick"><text text-anchor="end" x="79" y="4.199999999999999" style="font-family: 'Open Sans', verdana, arial, sans-serif; font-size: 12px; fill: rgb(42, 63, 95); fill-opacity: 1; white-space: pre; opacity: 1;" transform="translate(0,133.75)">500</text></g><g class="ytick"><text text-anchor="end" x="79" y="4.199999999999999" style="font-family: 'Open Sans', verdana, arial, sans-serif; font-size: 12px; fill: rgb(42, 63, 95); fill-opacity: 1; white-space: pre; opacity: 1;" transform="translate(0,86.1)">600</text></g></g><g class="overaxes-above"/></g></g><g class="polarlayer"/><g class="smithlayer"/><g class="ternarylayer"/><g class="geolayer"/><g class="funnelarealayer"/><g class="pielayer"/><g class="iciclelayer"/><g class="treemaplayer"/><g class="sunburstlayer"/><g class="glimages"/><defs id="topdefs-5c5d31"><g class="clips"/></defs><g class="layer-above"><g class="imagelayer"/><g class="shapelayer"/></g><g class="infolayer"><g class="g-gtitle"/><g class="g-xtitle"><text class="xtitle" x="350" y="460.8" text-anchor="middle" style="font-family: 'Open Sans', verdana, arial, sans-serif; font-size: 14px; fill: rgb(42, 63, 95); opacity: 1; font-weight: normal; white-space: pre;">time</text></g><g class="g-ytitle"><text class="ytitle" transform="rotate(-90,21.231250000000003,240)" x="21.231250000000003" y="240" text-anchor="middle" style="font-family: 'Open Sans', verdana, arial, sans-serif; font-size: 14px; fill: rgb(42, 63, 95); opacity: 1; font-weight: normal; white-space: pre;">intensity</text></g></g></svg>
